<?xml version="1.0" encoding="utf-8"?>
<!-- Generator: Adobe Illustrator 21.1.0, SVG Export Plug-In . SVG Version: 6.00 Build 0)  -->
<svg version="1.1" id="Слой_1" xmlns="http://www.w3.org/2000/svg" xmlns:xlink="http://www.w3.org/1999/xlink" x="0px" y="0px"
	 viewBox="0 0 147.7 184.9" style="enable-background:new 0 0 147.7 184.9;" xml:space="preserve">
<g id="Слой_x0020_1">
	<path d="M31.4,139.4H3.5c-1.9,0-3.5,1.4-3.5,3.3v15.3c0,14.4,11.4,26.2,25.7,26.9v0.1H119v-0.1c0.9,0,1.2,0.1,1.8,0.1h0.1
		c14.9,0,26.9-12.1,26.9-27c0-47,0-94,0-141v-6.8h-6.8H38.5h-6.8v6.8L31.4,139.4L31.4,139.4z M140.8,157.9c0,11.1-9,20.1-20.1,20.1
		h-0.1c-11.1,0-20.2-9-20.2-20.1v-15.2c0-0.9-0.3-1.7-0.9-2.3c-0.6-0.6-1.5-1-2.3-0.9h-59c0.3-40.9,0.2-81.5,0.2-122.5h102.4
		C140.9,63.9,140.8,110.9,140.8,157.9L140.8,157.9z M27,178L27,178c-11.1,0-20.1-9-20.2-20.1v-11.7h86.8v11.6c0,7.2,2.9,14,7.9,19.1
		c0.4,0.4,0.8,0.6,1.2,1.1L27,178L27,178z M83.5,0.1h12.3v14.1H83.5V0.1z M46.4,0h12.3v14.1H46.4C46.4,14.1,46.4,0,46.4,0z M120.5,0
		h12.3v14.1h-12.3C120.5,14.1,120.5,0,120.5,0z M64.9,13.5h12.3v14.1H64.9V13.5z M102,13.5h12.3v14.1H102V13.5z M52.9,48.4h65v8.7
		h-65V48.4z M52.9,76.4h65v8.7h-65V76.4z M52.9,103.7h65v8.7h-65V103.7z"/>
</g>
</svg>
