<?xml version="1.0" encoding="utf-8"?>
<!-- Generator: Adobe Illustrator 21.1.0, SVG Export Plug-In . SVG Version: 6.00 Build 0)  -->
<svg version="1.1" id="Слой_1" xmlns="http://www.w3.org/2000/svg" xmlns:xlink="http://www.w3.org/1999/xlink" x="0px" y="0px"
	 viewBox="0 0 104.3 193" style="enable-background:new 0 0 104.3 193;" xml:space="preserve">
<g id="Слой_x0020_1">
	<g id="_2088508433328">
		<g>
			<path d="M100.4,0l-25,0C47.3,0,29.1,18.6,29.1,47.5v21.9H3.9c-2.2,0-3.9,1.8-3.9,3.9v31.7c0,2.2,1.8,3.9,3.9,3.9l25.2,0V189
				c0,2.2,1.8,3.9,3.9,3.9h32.8c2.2,0,3.9-1.8,3.9-3.9l0-80.1h29.4c2.2,0,3.9-1.8,3.9-3.9l0-31.7c0-1-0.4-2-1.2-2.8
				c-0.7-0.7-1.7-1.2-2.8-1.2l-29.4,0V50.8c0-8.9,2.1-13.5,13.7-13.5l16.9,0c2.2,0,3.9-1.8,3.9-3.9V4C104.3,1.8,102.6,0,100.4,0
				L100.4,0z"/>
		</g>
	</g>
</g>
</svg>
