<?xml version="1.0" encoding="utf-8"?>
<!-- Generator: Adobe Illustrator 21.1.0, SVG Export Plug-In . SVG Version: 6.00 Build 0)  -->
<svg version="1.1" id="Слой_1" xmlns="http://www.w3.org/2000/svg" xmlns:xlink="http://www.w3.org/1999/xlink" x="0px" y="0px"
	 viewBox="0 0 193.1 193.1" style="enable-background:new 0 0 193.1 193.1;" xml:space="preserve">
<g id="Слой_x0020_1">
	<g id="_2088648910992">
		<g>
			<path d="M185.8,7.3C181,2.4,175.1,0,168.4,0H24.8C18,0,12.2,2.4,7.3,7.3C2.4,12.2,0,18,0,24.8v143.6c0,6.8,2.4,12.6,7.3,17.5
				c4.9,4.9,10.7,7.3,17.5,7.3h143.6c6.8,0,12.6-2.4,17.5-7.3c4.9-4.9,7.3-10.7,7.3-17.5V24.8C193.1,18,190.7,12.2,185.8,7.3
				L185.8,7.3z M69.3,69.6c7.6-7.3,16.7-11,27.3-11c10.7,0,19.9,3.7,27.5,11c7.6,7.3,11.4,16.2,11.4,26.6c0,10.4-3.8,19.3-11.4,26.6
				c-7.6,7.3-16.7,11-27.5,11c-10.6,0-19.8-3.7-27.3-11C61.8,115.4,58,106.6,58,96.2C58,85.8,61.8,76.9,69.3,69.6z M171.2,163.2
				c0,2.2-0.8,4-2.3,5.5c-1.5,1.5-3.3,2.2-5.4,2.2l-134.4,0c-2.2,0-4-0.7-5.5-2.2c-1.5-1.5-2.2-3.3-2.2-5.5V81.7h17.7
				c-1.7,5.3-2.5,10.8-2.5,16.5c0,16.1,5.9,29.8,17.6,41.2c11.7,11.4,25.9,17,42.4,17c10.9,0,21-2.6,30.2-7.8
				c9.2-5.2,16.5-12.3,21.9-21.2c5.4-8.9,8-18.7,8-29.2c0-5.7-0.8-11.2-2.5-16.5l17,0L171.2,163.2L171.2,163.2L171.2,163.2
				L171.2,163.2z M171.2,50.9c0,2.4-0.8,4.5-2.5,6.2c-1.7,1.7-3.7,2.5-6.2,2.5h-21.9c-2.4,0-4.5-0.8-6.2-2.5
				c-1.7-1.7-2.5-3.7-2.5-6.2V30.2c0-2.3,0.8-4.4,2.5-6.1c1.7-1.7,3.7-2.6,6.2-2.6h21.9c2.4,0,4.5,0.9,6.2,2.6
				c1.7,1.7,2.5,3.8,2.5,6.1L171.2,50.9L171.2,50.9z"/>
		</g>
	</g>
</g>
</svg>
