<?xml version="1.0" encoding="utf-8"?>
<!-- Generator: Adobe Illustrator 21.1.0, SVG Export Plug-In . SVG Version: 6.00 Build 0)  -->
<svg version="1.1" id="Слой_1" xmlns="http://www.w3.org/2000/svg" xmlns:xlink="http://www.w3.org/1999/xlink" x="0px" y="0px"
	 viewBox="0 0 164.7 186.6" style="enable-background:new 0 0 164.7 186.6;" xml:space="preserve">
<g id="Слой_x0020_1">
	<path d="M164.7,159.3c-21.7,17-50.6,27.3-82.3,27.3c-31.8,0-60.8-10.4-82.5-27.5c2.9-6.1,8-11.2,14.6-14.5l33.1-16.4
		c3.1-1.6,5.1-4.6,5.1-7.8v-11.2c-2.5-3-9.6-12.2-13-24.4c-3.5-2.6-5.5-6.4-5.5-10.5V60.7c0-3.3,1.3-6.4,3.7-8.9v-18
		c-0.2-1.9-1-12.9,7.8-22C53.4,4,65.7,0,82.5,0c16.8,0,29.1,4,36.7,11.9c8.8,9.1,8,20.2,7.8,22v18c2.4,2.5,3.7,5.6,3.7,8.9v13.5
		c0,5.3-3.4,10-8.6,12.2c-2.7,7.1-6.4,13.7-11,19.6c-0.9,1.2-1.8,2.3-2.7,3.2v11.4c0,3.4,2.1,6.5,5.4,8l35.4,16.1
		C156.3,147.9,161.6,153.1,164.7,159.3L164.7,159.3z"/>
</g>
</svg>
