<?xml version="1.0" encoding="utf-8"?>
<!-- Generator: Adobe Illustrator 21.1.0, SVG Export Plug-In . SVG Version: 6.00 Build 0)  -->
<svg version="1.1" id="Слой_1" xmlns="http://www.w3.org/2000/svg" xmlns:xlink="http://www.w3.org/1999/xlink" x="0px" y="0px"
	 viewBox="0 0 132.7 137.8" style="enable-background:new 0 0 132.7 137.8;" xml:space="preserve">
<style type="text/css">
	.st0{fill:#A6A6A8;}
</style>
<g id="Слой_x0020_1">
	<path class="st0" d="M131.9,132.8l-27.2-28.2c11.1-11.1,17.9-26.4,17.9-43.3C122.6,27.5,95.1,0,61.3,0C27.5,0,0,27.5,0,61.3
		c0,33.8,27.5,61.3,61.3,61.3c14.8,0,28.5-5.3,39.1-14.1l27.3,28.4c0.6,0.6,1.3,0.9,2.1,0.9c0.7,0,1.5-0.3,2-0.8
		C133,135.9,133,134,131.9,132.8L131.9,132.8z M5.8,61.3c0-30.6,24.9-55.5,55.5-55.5c30.6,0,55.5,24.9,55.5,55.5
		c0,30.6-24.9,55.5-55.5,55.5C30.7,116.8,5.8,91.9,5.8,61.3z M57.5,33.3h7.6v24.2h24.2v7.6H65.1v24.2h-7.6V65.1H33.3v-7.6h24.2
		C57.5,57.5,57.5,33.3,57.5,33.3z"/>
</g>
</svg>
