<?xml version="1.0" encoding="utf-8"?>
<!-- Generator: Adobe Illustrator 21.1.0, SVG Export Plug-In . SVG Version: 6.00 Build 0)  -->
<svg version="1.1" id="Слой_1" xmlns="http://www.w3.org/2000/svg" xmlns:xlink="http://www.w3.org/1999/xlink" x="0px" y="0px"
	 viewBox="0 0 189.4 67.7" style="enable-background:new 0 0 189.4 67.7;" xml:space="preserve">
<g id="Слой_x0020_1">
	<path d="M4.1,0h185.3v67.7H0V0C0,0,4.1,0,4.1,0z M174.9,39.6v19.9h6.4V8.1H8.1v51.4h6V39.6h8.1v19.9H28v-30h8.1v30h5.8V39.6H50
		v19.9h5.8V39.6h8.1v19.9h5.8v-30h8.1v30h5.8V39.6h8.1v19.9h5.8V39.6h8.1v19.9h5.8v-30h8.1v30h5.8V39.6h8.1v19.9h5.8V39.6h8.1v19.9
		h5.8v-30h8.1v30h5.8V39.6H174.9z"/>
</g>
</svg>
