<?xml version="1.0" encoding="utf-8"?><svg xmlns="http://www.w3.org/2000/svg" xmlns:xlink="http://www.w3.org/1999/xlink"><symbol viewBox="0 0 100 100" id="circle" xmlns="http://www.w3.org/2000/svg"><path style="text-indent:0;text-transform:none;block-progression:tb" d="M50 4C24.642 4 4 24.642 4 50s20.642 46 46 46 46-20.642 46-46S75.358 4 50 4zm0 8c21.034 0 38 16.966 38 38S71.034 88 50 88 12 71.034 12 50s16.966-38 38-38z" overflow="visible" color="#000"/></symbol><symbol viewBox="0 0 600.1 103.9" id="hoolister" xmlns="http://www.w3.org/2000/svg"><path d="M31 1.6v39.8H15V1.6H0v100.5h15V54h16v48.1h15V1.6zm54.1 88c-3.2 0-6.3-3.6-7.4-9.2-1.8-8.9-2.1-23.6-2.1-28.6 0-4.9.1-19.6 2.1-28.5 1.1-5.4 4.2-9.2 7.4-9.2s6.3 3.8 7.4 9.2c2 8.9 2.1 23.6 2.1 28.5 0 5-.3 19.7-2.1 28.6-1.3 5.6-4.1 9.2-7.4 9.2m0 14c7 0 13.4-4.3 17.5-12.6 4.8-9.6 7-21.1 7-39.3 0-18-2.2-29.6-7-39.1C98.5 4.4 92.3 0 85.1 0c-7 0-13.4 4.3-17.5 12.6-4.8 9.5-7 21.1-7 39.1 0 18.2 2.2 29.6 7 39.3 4.1 8.3 10.5 12.6 17.5 12.6m39.6-1.5h32.4v-14h-17.4V1.6h-15zm45.5 0h32.4v-14h-17.4V1.6h-15zM217.4 1.6h14.9V102h-14.9zm29.6 99.6c2.2 1 6.4 2.4 12 2.4 14.9 0 25.6-11.3 25.6-25.1 0-9.2-3.3-16.3-7.4-24.4-6.1-12.3-14.9-22.6-14.9-30.9 0-4.7 3.3-8.1 8.8-8.1 4.7 0 7.8 2.5 9.9 4.3V3.5C276.1.6 270.9.1 268.4.1c-14.5 0-21.1 10.9-21.1 22.6 0 10.9 6 19.4 12 32.1 5 10.8 10.3 18 10.3 23.2 0 5.9-3.4 10.6-12.2 10.6-4.2 0-7.4-1.7-10.5-3.6v16.2h.1zm57.7.9h14.9V15.6h10.6v-14h-36.1v14h10.6zm37.4 0h33.4v-14H357V56h16.7V42H357V15.6h18.5v-14h-33.4zm61.4-86.5c8.8 1 13.7 8 13.7 18.9 0 16.5-8.4 19.6-13.7 20.8V15.6zm-14.9 86.5h14.9V66.9h.3l14.5 35.2h16.9L415.9 63c8.9-4.6 16.2-12.7 16.2-28.5 0-10.5-3.8-18.7-7.1-22.4-9.2-10.5-21.9-10.5-36.5-10.5v100.5h.1zm122.1-23.9c-.4 3.8-2.9 10.5-8.7 10.5-3.3 0-6.1-2.4-7.7-7.8-1.8-6.2-2.9-10.5-2.9-25.8 0-6.4 0-19.3 2.7-30.4 1.7-7.1 5.2-9.5 8-9.5 4.9 0 6.4 5 7 9.8l12.3-6.3C521 9.9 512.9.3 501.8.3c-4.6 0-13 2.2-18.9 13.6-6 11.5-6.4 27.5-6.4 40.4 0 20.7 2.2 30.7 6.7 38.3 4.7 8.1 11 11.3 18 11.3 11.5 0 18.9-10.3 20.7-17.6l-11.2-8.1zm42.6 12.1c-6 0-6.4-9.8-6.4-22.2 0-13.5.4-22.2 6.4-22.2s6.4 8.7 6.4 22.2c0 12.4-.4 22.2-6.4 22.2m0 13.3c5.6 0 10.1-2.7 13.6-7.5 4.1-5.6 6.1-15.9 6.1-27.9 0-11.9-2.1-22.4-6.1-27.9-3.5-5-8-7.5-13.6-7.5s-10.1 2.7-13.6 7.5c-4 5.6-6.1 16.1-6.1 27.9 0 12 2.1 22.4 6.1 27.9 3.4 4.7 8 7.5 13.6 7.5m32.8-18h14v16.5h-14z"/></symbol><symbol viewBox="0 0 281 27" id="logo" xmlns="http://www.w3.org/2000/svg"><path d="M190.382 8.513c-2.266 0-4.239 1.621-4.239 4.063 0 1.914 1.485 2.988 1.895 3.36-2.031 1.054-4.102 2.655-4.16 5.468.058 2.187 1.582 4.863 5.488 4.863 2.09 0 3.828-.84 5.625-2.656.352.566.938 1.406 1.309 1.797.508.508 1.894.86 3.183.86 1.348 0 3.32-.509 4.649-1.954.078-.273-.117-.527-.39-.566-.567.41-1.446.742-2.188.742-1.934 0-3.184-1.113-4.336-2.91-.176-.293-.215-.547-.04-.801 1.192-1.7 2.169-3.164 2.813-4.258.938-1.582 1.504-2.363 2.91-2.656l1.25-.274c.215-.214.137-.664-.058-.761-.625.058-3.164.156-4.551.156h-1.504c-.273.117-.332.527-.078.762l.781.136c.762.137.664.41.196 1.446-.782 1.738-1.739 3.593-2.618 4.746-1.425-2.227-2.46-3.477-4.55-4.824.918-.547 2.558-1.192 2.558-3.243 0-1.875-1.523-3.496-3.945-3.496zm1.62 10.528a20.72 20.72 0 012.208 2.949c.332.508.332.664-.078 1.035-.84.762-1.953 1.25-3.164 1.25-2.364 0-4.258-1.621-4.258-3.887 0-1.367.742-2.754 1.66-3.398.215-.176.488-.332.625-.332s1.738.976 3.008 2.383zm-1.737-9.551c1.035 0 1.718.996 1.718 2.422 0 1.133-.39 2.031-.898 2.597-.059.04-.195.137-.274.137-.058 0-.273-.137-.43-.234-1.19-.88-1.855-1.7-1.855-2.832 0-1.25.801-2.09 1.739-2.09zm24.848-7.324a75.99 75.99 0 01-4.454-.118c-.292.157-.332.801-.078 1.055l.47.059c1.698.254 2.01.37 2.01 4.18V20.72c0 3.809-.312 3.926-2.01 4.14l-.802.098c-.234.254-.215.899.078 1.055 1.66-.078 3.282-.117 4.864-.117 1.582 0 3.203.039 5.488.117.293-.156.332-.8.078-1.055l-1.504-.175c-1.699-.137-2.012-.254-2.012-4.063v-5.039c0-.898.02-.976.86-.976h2.11c3.144 0 3.71.078 4.042 1.582l.274 1.406c.214.254.898.254 1.093-.04-.039-1.113-.117-2.402-.117-3.73 0-1.328.078-2.656.117-3.593-.195-.293-.879-.293-1.093-.04l-.274 1.23c-.332 1.505-.898 1.583-4.043 1.583h-2.11c-.839 0-.859-.078-.859-.977V5.681c0-2.012 0-2.07 1.504-2.07h1.836c1.153 0 2.051.02 3.008.273 1.367.371 1.953 1.406 2.305 3.496.37.215 1.015.137 1.152-.136-.058-1.7-.058-4.395-.058-5.196-.762.078-2.774.117-5.079.117h-6.796zm18.331 13.222c0-1.465.039-3.183.117-4.375-.117-.176-.293-.254-.508-.293-.996.606-2.812 1.406-4.668 1.953-.156.176-.156.664-.039.82l.43.255c.898.527.898.957.898 2.578v5.293c0 2.656-.136 3.047-1.367 3.242l-.644.097c-.254.254-.215.899.078 1.055a65.232 65.232 0 013.77-.117c1.328 0 2.558.039 3.886.117.274-.156.313-.8.059-1.055l-.645-.097c-1.21-.195-1.367-.586-1.367-3.242v-6.23zm-1.895-8.906c1.368 0 2.305-.977 2.305-2.266 0-1.289-.937-2.265-2.305-2.265-1.367 0-2.304.976-2.304 2.265 0 1.29.937 2.266 2.304 2.266zm14.777 6.836c.293-.195.43-.508.468-.938 0-.37-.078-.644-.293-.761h-3.554c-.684 0-.684-.098-.684-.684V8.787c-.176-.293-.683-.41-1.015-.196-.508.977-1.29 1.739-1.973 2.246-.8.567-1.621 1.036-2.832 1.504-.332.215-.254.782.098.977h1.27c.565 0 .644.02.644 1.289v7.305c0 2.52.605 4.492 4.023 4.492 2.188 0 3.848-.977 4.57-1.973.059-.41-.156-.683-.468-.722-.586.39-1.016.644-1.739.644-2.285 0-2.617-2.012-2.617-4.277v-5.547c0-1.153.04-1.211.684-1.211h3.418zm10.604-2.09c-5.781 0-8.848 3.848-8.848 8.047 0 2.09.82 3.965 2.09 5.176 1.211 1.191 3.086 1.953 5 1.953 2.266 0 5.02-1.016 6.328-3.926a.708.708 0 00-.762-.644c-.722 1.035-1.543 1.914-3.886 1.914-3.262 0-5.137-2.774-5.137-5.684 0-3.379 2.129-5.39 4.18-5.39 1.386 0 2.48 1.132 3.261 2.187.254.312.43.39.684.39.293 0 .898-.546.898-1.68 0-.84-.253-1.405-.722-1.835-.996-.371-2.051-.508-3.086-.508zm11.683-5.547c0-1.543.039-3.77.117-5.215a.484.484 0 00-.508-.273c-1.484.566-3.32 1.328-4.707 1.719-.254.117-.215.683 0 .82l.488.332c.8.469.84.723.84 3.125v15.43c0 2.656-.156 3.047-1.367 3.242l-.801.097c-.254.254-.215.899.078 1.055a74.36 74.36 0 013.887-.117c1.328 0 2.558.039 3.808.117.293-.156.332-.8.079-1.055l-.547-.078c-1.23-.214-1.368-.605-1.368-3.261v-4.825c0-1.406.04-1.933.43-2.363a3.331 3.331 0 012.442-1.055c2.128 0 2.89 1.446 2.89 3.165v5.078c0 2.656-.156 3.047-1.367 3.261l-.547.078c-.254.254-.215.899.078 1.055a59.05 59.05 0 013.672-.117c1.328 0 2.54.039 4.063.117.351-.156.39-.8.058-1.055l-.82-.097c-1.23-.195-1.367-.586-1.367-3.242v-5.352c0-3.066-1.504-5.039-4.61-5.039-1.797 0-3.34.781-4.59 1.719-.253 0-.332-.176-.332-.606v-6.66zM13.777 17.497c.996 0 1.113 0 1.464.977l1.7 4.883c.468 1.543.351 1.758-.938 1.914l-.8.098c-.215.214-.176.859.117 1.054 1.25-.039 2.832-.117 4.394-.117 1.856 0 3.184.04 4.668.117.254-.195.254-.8-.04-1.054l-.546-.098c-1.816-.332-2.012-.586-2.832-2.988L15.788 7.204c-.586-1.601-1.054-3.3-1.62-4.921a.732.732 0 00-.606-.293c-.078 0-1.27 1.484-2.52 1.738.098.605-.215 1.465-.683 2.617L5.437 19.158c-.762 1.933-1.328 3.437-1.778 4.375-.527 1.19-.918 1.523-1.972 1.66l-1.075.175c-.253.333-.214.86.04 1.055a55.393 55.393 0 013.554-.117c1.485.04 2.657.04 3.809.117.293-.156.332-.8.078-1.055l-1.035-.175c-1.348-.176-1.485-.293-.762-2.403l1.465-4.316c.332-.977.293-.977 1.23-.977h4.786zm-4.22-1.62c-.859 0-.956 0-.566-1.036l1.504-4.219c.645-1.68.938-2.578 1.075-2.832h.078c.175.254.39.938 1.015 2.832l1.504 4.317c.293.86.137.937-.86.937h-3.75zm20.068-9.786c0-1.543.039-3.77.117-5.215a.484.484 0 00-.508-.273c-1.484.566-3.34 1.328-4.707 1.719-.254.117-.215.683 0 .82l.508.332c.781.469.82.723.82 3.125v16.21c0 1.349-.117 3.243-.117 3.38 0 .117.215.254.371.254.098 0 .176 0 .254-.02.215-.254.469-.586.899-.586.43 0 2.109.977 4.785.977 4.707 0 8.515-2.95 8.515-8.067 0-3.984-2.656-7.109-6.875-7.109-1.425 0-2.617.469-3.77 1.152-.214 0-.292-.156-.292-.644V6.09zm0 9.863c0-1.23.078-1.699.39-1.914.293-.214 1.055-.468 1.778-.468 2.539 0 4.765 2.265 4.765 6.484 0 3.047-1.328 5.312-3.73 5.312a2.97 2.97 0 01-2.402-1.21c-.586-.762-.801-2.032-.801-3.614v-4.59zm23.474 1.836c1.445 0 2.265-.156 2.48-.468.156-.293.196-.508.196-.84 0-3.125-2.735-4.844-5.391-4.844-4.824 0-7.598 3.926-7.598 7.988 0 4.082 2.774 7.188 6.934 7.188 2.207 0 4.863-1.074 6.094-3.965-.04-.313-.45-.684-.801-.566-.82 1.328-2.012 1.796-3.457 1.796-3.203 0-5.43-2.597-5.43-5.82 0-.43.078-.469.762-.469h6.21zm-6.172-1.445c-.43 0-.508-.098-.508-.254 0-.762 1.113-3.086 3.516-3.086 1.562 0 2.383 1.035 2.383 2.324 0 .332-.137.625-.352.762-.254.156-.723.254-1.777.254h-3.262zm11.936 5.684c0 2.656-.157 3.047-1.367 3.242l-.645.098c-.254.253-.215.898.059 1.054a64.586 64.586 0 013.75-.117c1.328 0 2.558.04 4.707.117.293-.156.332-.8.078-1.054l-1.407-.137c-1.25-.156-1.406-.547-1.406-3.203v-4.922c0-1.778.215-2.598 1.055-2.598.215 0 .82.078 1.719.684.293.176.605.293.976.293.957 0 2.012-.684 2.012-2.09 0-.938-.723-1.758-1.992-1.758-1.211 0-2.403 1.074-3.516 1.875-.215 0-.351-.195-.351-.43 0-.332.02-.937.058-1.62-.058-.216-.273-.333-.488-.333-1.094.645-2.988 1.446-4.531 1.953-.157.176-.157.664-.04.82l.43.255c.899.527.899.957.899 2.578v5.293zM77.45 11.638c-5.781 0-8.848 3.848-8.848 8.047 0 2.09.82 3.965 2.09 5.176 1.21 1.191 3.086 1.953 5 1.953 2.266 0 5.02-1.016 6.328-3.926a.708.708 0 00-.762-.645c-.722 1.036-1.543 1.915-3.886 1.915-3.262 0-5.137-2.774-5.137-5.684 0-3.379 2.129-5.39 4.18-5.39 1.386 0 2.48 1.132 3.261 2.187.254.312.43.39.684.39.293 0 .898-.546.898-1.68 0-.84-.254-1.405-.722-1.835-.996-.371-2.051-.508-3.086-.508zm7.625 10.391c0 2.656-.157 3.047-1.368 3.242l-.644.098c-.254.253-.215.898.059 1.054a64.586 64.586 0 013.75-.117c1.328 0 2.558.04 4.707.117.293-.156.332-.8.078-1.054l-1.407-.137c-1.25-.156-1.406-.547-1.406-3.203v-4.922c0-1.778.215-2.598 1.055-2.598.215 0 .82.078 1.719.684.293.176.605.293.976.293.957 0 2.012-.684 2.012-2.09 0-.938-.723-1.758-1.992-1.758-1.211 0-2.403 1.074-3.516 1.875-.215 0-.351-.195-.351-.43 0-.332.019-.937.058-1.62-.058-.216-.273-.333-.488-.333-1.094.645-2.988 1.446-4.531 1.953-.157.176-.157.664-.04.82l.43.255c.899.527.899.957.899 2.578v5.293zm17.611-10.391c-4.2 0-7.872 3.027-7.872 7.832 0 4.707 3.457 7.344 7.598 7.344 4.277 0 7.871-2.656 7.871-7.774 0-4.668-3.535-7.402-7.597-7.402zm-3.633 7.305c0-4.004 1.445-5.86 3.281-5.86 2.656 0 3.691 3.555 3.691 6.563 0 2.773-.703 5.722-3.183 5.722-2.598 0-3.79-3.164-3.79-6.425zm14.064 3.086c0 2.656-.137 3.047-1.367 3.242l-.645.098c-.254.253-.215.898.078 1.054a60.155 60.155 0 017.54 0c.292-.156.331-.8.078-1.054l-.547-.079c-1.211-.214-1.368-.605-1.368-3.261v-4.825c0-1.406.04-1.718.47-2.304.39-.528 1.327-1.113 2.558-1.113 2.09 0 2.734 1.445 2.734 3.359v4.883c0 2.656-.137 3.047-1.367 3.261l-.469.079c-.254.253-.215.898.078 1.054a54.777 54.777 0 013.594-.117c1.328 0 2.52.04 3.77.117.293-.156.332-.8.078-1.054l-.547-.079c-1.211-.214-1.367-.605-1.367-3.261v-5.293c0-.996.078-1.426.43-1.856.429-.547 1.367-1.093 2.421-1.093 2.266 0 2.91 1.445 2.91 3.359v4.883c0 2.656-.156 3.047-1.367 3.242l-.586.098c-.254.253-.215.898.078 1.054 1.29-.078 2.52-.117 3.711-.117 1.328 0 2.54.04 4.102.117.137-.156.312-.8 0-1.054l-.8-.098c-1.231-.195-1.368-.586-1.368-3.242v-5.567c0-2.812-1.367-4.824-4.395-4.824-1.68 0-2.91.645-4.59 1.68-.43.254-.644.37-.8.37-.137 0-.352-.214-.567-.546-.507-.684-1.699-1.504-3.242-1.504-2.441 0-3.379.86-5.137 1.797-.214-.04-.332-.117-.332-.352 0-.293 0-.976.078-1.66a.49.49 0 00-.468-.293c-1.153.645-3.086 1.504-4.668 1.953-.156.176-.156.664-.04.82l.43.255c.899.527.899.957.899 2.578v5.293zm30.379-15.938c0-1.543.04-3.77.117-5.215a.484.484 0 00-.508-.273c-1.484.566-3.34 1.328-4.707 1.719-.254.117-.214.683 0 .82l.508.332c.781.469.82.723.82 3.125v16.21c0 1.349-.117 3.243-.117 3.38 0 .117.215.254.371.254.098 0 .176 0 .254-.02.215-.254.47-.586.899-.586.43 0 2.11.977 4.785.977 4.707 0 8.516-2.95 8.516-8.067 0-3.984-2.657-7.109-6.875-7.109-1.426 0-2.618.469-3.77 1.152-.215 0-.293-.156-.293-.644V6.09zm0 9.863c0-1.23.078-1.699.39-1.914.294-.214 1.055-.468 1.778-.468 2.54 0 4.766 2.265 4.766 6.484 0 3.047-1.328 5.312-3.73 5.312a2.97 2.97 0 01-2.403-1.21c-.586-.762-.8-2.032-.8-3.614v-4.59zm17.544-.156c0-1.465.039-3.183.117-4.375-.117-.176-.293-.254-.508-.293-.996.606-2.813 1.406-4.668 1.953-.156.176-.156.664-.039.82l.43.255c.898.527.898.957.898 2.578v5.293c0 2.656-.137 3.047-1.367 3.242l-.645.098c-.254.253-.214.898.078 1.054a65.235 65.235 0 013.77-.117c1.328 0 2.559.04 3.887.117.273-.156.312-.8.058-1.054l-.644-.098c-1.211-.195-1.367-.586-1.367-3.242v-6.23zm-1.895-8.906c1.367 0 2.305-.977 2.305-2.266 0-1.289-.938-2.265-2.305-2.265-1.367 0-2.305.976-2.305 2.265 0 1.29.938 2.266 2.305 2.266zM174.45 17.79c1.444 0 2.265-.156 2.48-.468.156-.293.195-.508.195-.84 0-3.125-2.734-4.844-5.39-4.844-4.825 0-7.598 3.926-7.598 7.988 0 4.082 2.773 7.188 6.933 7.188 2.207 0 4.864-1.074 6.094-3.965-.039-.313-.45-.684-.8-.566-.821 1.328-2.012 1.796-3.458 1.796-3.203 0-5.43-2.597-5.43-5.82 0-.43.079-.469.762-.469h6.211zm-6.173-1.445c-.43 0-.508-.098-.508-.254 0-.762 1.114-3.086 3.516-3.086 1.563 0 2.383 1.035 2.383 2.324 0 .332-.137.625-.352.762-.254.156-.722.254-1.777.254h-3.262zm0 0" fill="#343434"/></symbol><symbol id="logo-long" viewBox="0 0 281 27" xmlns="http://www.w3.org/2000/svg"><style>.dst0{fill:#343434}</style><path id="dpath15602" class="dst0" d="M190.382 8.513c-2.266 0-4.238 1.621-4.238 4.062 0 1.914 1.484 2.988 1.895 3.359-2.031 1.055-4.102 2.656-4.16 5.469.059 2.188 1.582 4.863 5.488 4.863 2.09 0 3.828-.84 5.625-2.656.352.566.938 1.406 1.309 1.797.508.508 1.895.859 3.184.859 1.348 0 3.32-.508 4.648-1.953.078-.273-.117-.527-.391-.566-.566.41-1.445.742-2.188.742-1.934 0-3.184-1.113-4.336-2.91-.176-.293-.215-.547-.039-.801 1.191-1.699 2.168-3.164 2.813-4.258.938-1.582 1.504-2.363 2.91-2.656l1.25-.273c.215-.215.137-.664-.059-.762-.625.059-3.164.156-4.551.156h-1.504c-.273.117-.332.527-.078.762l.781.137c.762.137.664.41.195 1.445-.781 1.738-1.738 3.594-2.617 4.746-1.426-2.227-2.461-3.477-4.551-4.824.918-.547 2.559-1.191 2.559-3.242 0-1.875-1.523-3.496-3.945-3.496zm1.621 10.528a20.675 20.675 0 012.207 2.949c.332.508.332.664-.078 1.035-.84.762-1.953 1.25-3.164 1.25-2.363 0-4.258-1.621-4.258-3.887 0-1.367.742-2.754 1.66-3.398.215-.176.488-.332.625-.332s1.738.976 3.008 2.383zm-1.738-9.551c1.035 0 1.719.996 1.719 2.422 0 1.133-.391 2.031-.898 2.598-.059.039-.195.137-.273.137-.059 0-.273-.137-.43-.234-1.191-.879-1.855-1.699-1.855-2.832-.002-1.251.799-2.091 1.737-2.091z"/><path id="dpath15606" class="dst0" d="M215.113 2.166c-1.582 0-3.203-.039-4.453-.117-.293.156-.332.801-.078 1.055l.469.059c1.699.254 2.012.371 2.012 4.18V20.72c0 3.809-.313 3.926-2.012 4.141l-.801.098c-.234.254-.215.898.078 1.055 1.66-.078 3.281-.117 4.863-.117 1.582 0 3.203.039 5.488.117.293-.156.332-.801.078-1.055l-1.504-.176c-1.699-.137-2.012-.254-2.012-4.063v-5.039c0-.898.02-.977.859-.977h2.109c3.145 0 3.711.078 4.043 1.582l.273 1.406c.215.254.898.254 1.094-.039-.039-1.113-.117-2.402-.117-3.73 0-1.328.078-2.656.117-3.594-.195-.293-.879-.293-1.094-.039l-.273 1.23c-.332 1.504-.898 1.582-4.043 1.582H218.1c-.84 0-.859-.078-.859-.977V5.681c0-2.012 0-2.07 1.504-2.07h1.836c1.152 0 2.051.02 3.008.273 1.367.371 1.953 1.406 2.305 3.496.371.215 1.016.137 1.152-.137-.059-1.699-.059-4.395-.059-5.195-.762.078-2.773.117-5.078.117l-6.796.001z"/><path id="dpath15610" class="dst0" d="M233.444 15.388c0-1.465.039-3.184.117-4.375-.117-.176-.293-.254-.508-.293-.996.605-2.812 1.406-4.668 1.953-.156.176-.156.664-.039.82l.43.254c.898.527.898.957.898 2.578v5.293c0 2.656-.137 3.047-1.367 3.242l-.645.098c-.254.254-.215.898.078 1.055a65.311 65.311 0 013.77-.117c1.328 0 2.559.039 3.887.117.273-.156.313-.801.059-1.055l-.645-.098c-1.211-.195-1.367-.586-1.367-3.242v-6.23zm-1.895-8.906c1.367 0 2.305-.977 2.305-2.266s-.938-2.266-2.305-2.266-2.305.977-2.305 2.266.938 2.266 2.305 2.266z"/><path id="dpath15618" class="dst0" d="M246.326 13.318c.293-.195.43-.508.469-.938 0-.371-.078-.645-.293-.762h-3.555c-.684 0-.684-.098-.684-.684V8.787c-.176-.293-.684-.41-1.016-.195-.508.977-1.289 1.738-1.973 2.246-.801.566-1.621 1.035-2.832 1.504-.332.215-.254.781.098.977h1.27c.566 0 .645.019.645 1.289v7.305c0 2.52.605 4.492 4.023 4.492 2.188 0 3.848-.977 4.57-1.973.059-.41-.156-.684-.469-.723-.586.391-1.016.645-1.738.645-2.285 0-2.617-2.012-2.617-4.277V14.53c0-1.152.039-1.211.684-1.211l3.418-.001z"/><path id="dpath15614" class="dst0" d="M256.93 11.228c-5.781 0-8.848 3.848-8.848 8.047 0 2.09.82 3.965 2.09 5.176 1.211 1.191 3.086 1.953 5 1.953 2.266 0 5.02-1.016 6.328-3.926a.708.708 0 00-.762-.645c-.723 1.035-1.543 1.914-3.887 1.914-3.262 0-5.137-2.773-5.137-5.684 0-3.379 2.129-5.391 4.18-5.391 1.387 0 2.48 1.133 3.262 2.188.254.313.43.391.684.391.293 0 .898-.547.898-1.68 0-.84-.254-1.406-.723-1.836-.995-.37-2.05-.507-3.085-.507z"/><path id="dpath15622" class="dst0" d="M268.613 5.681c0-1.543.039-3.77.117-5.215a.482.482 0 00-.508-.273c-1.484.566-3.32 1.328-4.707 1.719-.254.117-.215.684 0 .82l.488.332c.801.469.84.723.84 3.125v15.43c0 2.656-.156 3.047-1.367 3.242l-.801.098c-.254.254-.215.898.078 1.055a74.45 74.45 0 013.887-.117c1.328 0 2.559.039 3.809.117.293-.156.332-.801.078-1.055l-.547-.078c-1.23-.215-1.367-.605-1.367-3.262v-4.824c0-1.406.039-1.934.43-2.363a3.331 3.331 0 012.441-1.055c2.129 0 2.891 1.445 2.891 3.164v5.078c0 2.656-.156 3.047-1.367 3.262l-.547.078c-.254.254-.215.898.078 1.055 1.25-.078 2.48-.117 3.672-.117 1.328 0 2.539.039 4.063.117.352-.156.391-.801.059-1.055l-.82-.098c-1.23-.195-1.367-.586-1.367-3.242v-5.352c0-3.066-1.504-5.039-4.609-5.039-1.797 0-3.34.781-4.59 1.719-.254 0-.332-.176-.332-.605l-.002-6.661z"/><path id="dpath15558" class="dst0" d="M13.777 17.497c.996 0 1.113 0 1.465.977l1.699 4.883c.469 1.543.352 1.758-.938 1.914l-.801.098c-.215.215-.176.859.117 1.055 1.25-.039 2.832-.117 4.395-.117 1.855 0 3.184.039 4.668.117.254-.195.254-.801-.039-1.055l-.547-.098c-1.816-.332-2.012-.586-2.832-2.988L15.788 7.204c-.586-1.602-1.055-3.301-1.621-4.922a.733.733 0 00-.605-.292c-.078 0-1.27 1.484-2.52 1.738.098.605-.215 1.465-.684 2.617L5.437 19.158c-.762 1.934-1.328 3.438-1.777 4.375-.527 1.191-.918 1.523-1.973 1.66l-1.074.176c-.254.332-.215.859.039 1.055a55.459 55.459 0 013.555-.117c1.484.039 2.656.039 3.809.117.293-.156.332-.801.078-1.055l-1.035-.176c-1.349-.176-1.486-.293-.763-2.403l1.465-4.316c.332-.977.293-.977 1.23-.977h4.786zm-4.219-1.621c-.859 0-.957 0-.566-1.035l1.504-4.219c.645-1.68.938-2.578 1.074-2.832h.078c.176.254.391.938 1.016 2.832l1.504 4.316c.293.859.137.938-.859.938H9.558z"/><path id="dpath15562" class="dst0" d="M29.625 6.091c0-1.543.039-3.77.117-5.215a.482.482 0 00-.508-.273c-1.484.566-3.34 1.328-4.707 1.719-.254.117-.215.684 0 .82l.508.332c.781.469.82.723.82 3.125V22.81c0 1.348-.117 3.242-.117 3.379 0 .117.215.254.371.254.098 0 .176 0 .254-.02.215-.254.469-.586.898-.586.43 0 2.109.977 4.785.977 4.707 0 8.516-2.949 8.516-8.066 0-3.984-2.656-7.109-6.875-7.109-1.426 0-2.617.469-3.77 1.152-.215 0-.293-.156-.293-.645V6.091h.001zm0 9.863c0-1.23.078-1.699.391-1.914.293-.215 1.055-.469 1.777-.469 2.539 0 4.766 2.266 4.766 6.484 0 3.047-1.328 5.313-3.73 5.313a2.969 2.969 0 01-2.402-1.211c-.586-.762-.801-2.031-.801-3.613l-.001-4.59z"/><path id="dpath15566" class="dst0" d="M53.099 17.79c1.445 0 2.266-.156 2.48-.469.156-.293.195-.508.195-.84 0-3.125-2.734-4.844-5.391-4.844-4.824 0-7.598 3.926-7.598 7.988 0 4.082 2.773 7.188 6.934 7.188 2.207 0 4.863-1.074 6.094-3.965-.039-.313-.449-.684-.801-.566-.82 1.328-2.012 1.797-3.457 1.797-3.203 0-5.43-2.598-5.43-5.82 0-.43.078-.469.762-.469h6.212zm-6.172-1.445c-.43 0-.508-.098-.508-.254 0-.762 1.113-3.086 3.516-3.086 1.563 0 2.383 1.035 2.383 2.324 0 .332-.137.625-.352.762-.254.156-.723.254-1.777.254h-3.262z"/><path id="dpath15570" class="dst0" d="M58.863 22.029c0 2.656-.156 3.047-1.367 3.242l-.645.098c-.254.254-.215.898.059 1.055a64.673 64.673 0 013.75-.117c1.328 0 2.559.039 4.707.117.293-.156.332-.801.078-1.055l-1.406-.137c-1.25-.156-1.406-.547-1.406-3.203v-4.922c0-1.777.215-2.598 1.055-2.598.215 0 .82.078 1.719.684.293.176.605.293.977.293.957 0 2.012-.684 2.012-2.09 0-.938-.723-1.758-1.992-1.758-1.211 0-2.402 1.074-3.516 1.875-.215 0-.352-.195-.352-.43 0-.332.02-.938.059-1.621-.059-.215-.273-.332-.488-.332-1.094.645-2.988 1.445-4.531 1.953-.156.176-.156.664-.039.82l.43.254c.898.527.898.957.898 2.578l-.002 5.294z"/><path id="dpath15574" class="dst0" d="M77.45 11.638c-5.781 0-8.848 3.848-8.848 8.047 0 2.09.82 3.965 2.09 5.176 1.211 1.191 3.086 1.953 5 1.953 2.266 0 5.02-1.016 6.328-3.926a.708.708 0 00-.762-.645c-.723 1.035-1.543 1.914-3.887 1.914-3.262 0-5.137-2.773-5.137-5.684 0-3.379 2.129-5.391 4.18-5.391 1.387 0 2.48 1.133 3.262 2.188.254.313.43.391.684.391.293 0 .898-.547.898-1.68 0-.84-.254-1.406-.723-1.836-.995-.37-2.05-.507-3.085-.507z"/><path id="dpath15578" class="dst0" d="M85.075 22.029c0 2.656-.156 3.047-1.367 3.242l-.645.098c-.254.254-.215.898.059 1.055a64.673 64.673 0 013.75-.117c1.328 0 2.559.039 4.707.117.293-.156.332-.801.078-1.055l-1.406-.137c-1.25-.156-1.406-.547-1.406-3.203v-4.922c0-1.777.215-2.598 1.055-2.598.215 0 .82.078 1.719.684.293.176.605.293.977.293.957 0 2.012-.684 2.012-2.09 0-.938-.723-1.758-1.992-1.758-1.211 0-2.402 1.074-3.516 1.875-.215 0-.352-.195-.352-.43 0-.332.02-.938.059-1.621-.059-.215-.273-.332-.488-.332-1.094.645-2.988 1.445-4.531 1.953-.156.176-.156.664-.039.82l.43.254c.898.527.898.957.898 2.578l-.002 5.294z"/><path id="dpath15582" class="dst0" d="M102.686 11.638c-4.199 0-7.871 3.027-7.871 7.832 0 4.707 3.457 7.344 7.598 7.344 4.277 0 7.871-2.656 7.871-7.773-.001-4.669-3.536-7.403-7.598-7.403zm-3.633 7.305c0-4.004 1.445-5.859 3.281-5.859 2.656 0 3.691 3.555 3.691 6.562 0 2.773-.703 5.723-3.184 5.723-2.597-.001-3.788-3.165-3.788-6.426z"/><path id="dpath15586" class="dst0" d="M113.117 22.029c0 2.656-.137 3.047-1.367 3.242l-.645.098c-.254.254-.215.898.078 1.055a60.241 60.241 0 017.539 0c.293-.156.332-.801.078-1.055l-.547-.078c-1.211-.215-1.367-.605-1.367-3.262v-4.824c0-1.406.039-1.719.469-2.305.391-.527 1.328-1.113 2.559-1.113 2.09 0 2.734 1.445 2.734 3.359v4.883c0 2.656-.137 3.047-1.367 3.262l-.469.078c-.254.254-.215.898.078 1.055a54.844 54.844 0 013.594-.117c1.328 0 2.52.039 3.77.117.293-.156.332-.801.078-1.055l-.547-.078c-1.211-.215-1.367-.605-1.367-3.262v-5.293c0-.996.078-1.426.43-1.855.43-.547 1.367-1.094 2.422-1.094 2.266 0 2.91 1.445 2.91 3.359v4.883c0 2.656-.156 3.047-1.367 3.242l-.586.098c-.254.254-.215.898.078 1.055a61.36 61.36 0 013.711-.117c1.328 0 2.539.039 4.102.117.137-.156.313-.801 0-1.055l-.801-.098c-1.23-.195-1.367-.586-1.367-3.242v-5.566c0-2.813-1.367-4.824-4.395-4.824-1.68 0-2.91.645-4.59 1.68-.43.254-.645.371-.801.371-.137 0-.352-.215-.566-.547-.508-.684-1.699-1.504-3.242-1.504-2.441 0-3.379.859-5.137 1.797-.215-.039-.332-.117-.332-.352 0-.293 0-.977.078-1.66a.491.491 0 00-.469-.293c-1.152.645-3.086 1.504-4.668 1.953-.156.176-.156.664-.039.82l.43.254c.898.527.898.957.898 2.578v5.293z"/><path id="dpath15590" class="dst0" d="M143.496 6.091c0-1.543.039-3.77.117-5.215a.482.482 0 00-.508-.273c-1.484.566-3.34 1.328-4.707 1.719-.254.117-.215.684 0 .82l.508.332c.781.469.82.723.82 3.125V22.81c0 1.348-.117 3.242-.117 3.379 0 .117.215.254.371.254.098 0 .176 0 .254-.02.215-.254.469-.586.898-.586s2.109.977 4.785.977c4.707 0 8.516-2.949 8.516-8.066 0-3.984-2.656-7.109-6.875-7.109-1.426 0-2.617.469-3.77 1.152-.215 0-.293-.156-.293-.645l.001-6.055zm0 9.863c0-1.23.078-1.699.391-1.914.293-.215 1.055-.469 1.777-.469 2.539 0 4.766 2.266 4.766 6.484 0 3.047-1.328 5.313-3.73 5.313a2.969 2.969 0 01-2.402-1.211c-.586-.762-.801-2.031-.801-3.613l-.001-4.59z"/><path id="dpath15594" class="dst0" d="M161.04 15.798c0-1.465.039-3.184.117-4.375-.117-.176-.293-.254-.508-.293-.996.605-2.813 1.406-4.668 1.953-.156.176-.156.664-.039.82l.43.254c.898.527.898.957.898 2.578v5.293c0 2.656-.137 3.047-1.367 3.242l-.645.098c-.254.254-.215.898.078 1.055a65.311 65.311 0 013.77-.117c1.328 0 2.559.039 3.887.117.273-.156.313-.801.059-1.055l-.645-.098c-1.211-.195-1.367-.586-1.367-3.242v-6.23zm-1.895-8.906c1.367 0 2.305-.977 2.305-2.266 0-1.289-.938-2.266-2.305-2.266s-2.305.977-2.305 2.266c0 1.289.938 2.266 2.305 2.266z"/><path id="dpath15598" class="dst0" d="M174.449 17.79c1.445 0 2.266-.156 2.48-.469.156-.293.195-.508.195-.84 0-3.125-2.734-4.844-5.391-4.844-4.824 0-7.598 3.926-7.598 7.988 0 4.082 2.773 7.188 6.934 7.188 2.207 0 4.863-1.074 6.094-3.965-.039-.313-.449-.684-.801-.566-.82 1.328-2.012 1.797-3.457 1.797-3.203 0-5.43-2.598-5.43-5.82 0-.43.078-.469.762-.469h6.212zm-6.172-1.445c-.43 0-.508-.098-.508-.254 0-.762 1.113-3.086 3.516-3.086 1.563 0 2.383 1.035 2.383 2.324 0 .332-.137.625-.352.762-.254.156-.723.254-1.777.254h-3.262z"/></symbol><symbol style="position:absolute;width:0;height:0" overflow="hidden" viewBox="0 0 0 0" id="symbol-defs" xmlns="http://www.w3.org/2000/svg"/></svg>