<?xml version="1.0" encoding="UTF-8"?>
<!DOCTYPE svg PUBLIC "-//W3C//DTD SVG 1.1//EN" "http://www.w3.org/Graphics/SVG/1.1/DTD/svg11.dtd">
<!-- Creator: CorelDRAW 2017 -->
<svg xmlns="http://www.w3.org/2000/svg" xml:space="preserve" width="66.781mm" height="54.6753mm" version="1.1" style="shape-rendering:geometricPrecision; text-rendering:geometricPrecision; image-rendering:optimizeQuality; fill-rule:evenodd; clip-rule:evenodd"
viewBox="0 0 6678.1 5467.53"
 xmlns:xlink="http://www.w3.org/1999/xlink">
 <defs>
  <style type="text/css">
   <![CDATA[
    .fil0 {fill:black}
   ]]>
  </style>
 </defs>
 <g id="Слой_x0020_1">
  <metadata id="CorelCorpID_0Corel-Layer"/>
  <g id="_2088615458960">
   <g id="XMLID_826_">
    <path id="XMLID_827_" class="fil0" d="M6526.75 631c-104.91,46.53 -212.77,85.8 -322.98,117.68 130.48,-147.56 229.97,-321.19 290.69,-511.2 13.62,-42.59 -0.49,-89.2 -35.5,-117.06 -34.96,-27.87 -83.54,-31.21 -122.04,-8.4 -234.05,138.82 -486.57,238.58 -751.34,296.92 -266.72,-260.62 -628.97,-408.94 -1003.46,-408.94 -790.49,0 -1433.61,643.1 -1433.61,1433.57 0,62.25 3.95,124.16 11.74,185.22 -980.92,-86.13 -1892.86,-568.26 -2519.1,-1336.43 -22.31,-27.38 -56.7,-42.14 -91.89,-39.32 -35.23,2.76 -66.87,22.62 -84.67,53.15 -127.01,217.94 -194.16,467.21 -194.16,720.82 0,345.43 123.33,673.17 341.19,929.26 -66.24,-22.94 -130.53,-51.61 -191.88,-85.67 -32.94,-18.33 -73.13,-18.05 -105.86,0.71 -32.74,18.76 -53.27,53.28 -54.13,91 -0.15,6.35 -0.15,12.71 -0.15,19.15 0,515.61 277.5,979.82 701.78,1232.83 -36.45,-3.64 -72.88,-8.92 -109.07,-15.83 -37.31,-7.13 -75.68,5.94 -100.84,34.4 -25.2,28.43 -33.54,68.07 -21.93,104.26 157.04,490.3 561.37,850.94 1050.16,960.89 -405.4,253.92 -869.01,386.92 -1355.69,386.92 -101.55,0 -203.68,-5.97 -303.64,-17.79 -49.66,-5.91 -97.13,23.41 -114.05,70.63 -16.91,47.25 1.02,99.92 43.26,127 625.22,400.87 1348.16,612.76 2090.6,612.76 1459.57,0 2372.64,-688.27 2881.57,-1265.66 634.63,-719.96 998.61,-1672.92 998.61,-2614.51 0,-39.34 -0.61,-79.06 -1.81,-118.66 250.38,-188.64 465.96,-416.94 641.37,-679.35 26.65,-39.85 23.76,-92.52 -7.1,-129.21 -30.83,-36.7 -82.21,-48.57 -126.07,-29.14z"/>
   </g>
   <g>
   </g>
   <g>
   </g>
   <g>
   </g>
   <g>
   </g>
   <g>
   </g>
   <g>
   </g>
   <g>
   </g>
   <g>
   </g>
   <g>
   </g>
   <g>
   </g>
   <g>
   </g>
   <g>
   </g>
   <g>
   </g>
   <g>
   </g>
   <g>
   </g>
  </g>
 </g>
</svg>
