<?xml version="1.0" encoding="utf-8"?>
<!-- Generator: Adobe Illustrator 21.1.0, SVG Export Plug-In . SVG Version: 6.00 Build 0)  -->
<svg version="1.1" id="Слой_1" xmlns="http://www.w3.org/2000/svg" xmlns:xlink="http://www.w3.org/1999/xlink" x="0px" y="0px"
	 viewBox="0 0 267.431 267.431" enable-background="new 0 0 267.431 267.431" xml:space="preserve">
<g id="Слой_x0020_1">
	<g>
		<path fill="#0E0F0F" d="M216.082,199.979c-21.69,16.983-50.561,27.347-82.26,27.347c-31.804,0-60.76-10.433-82.474-27.516
			c2.922-6.08,8.002-11.233,14.632-14.527l33.077-16.419c3.145-1.566,5.105-4.563,5.105-7.83v-11.166
			c-2.486-2.959-9.593-12.182-12.989-24.422c-3.501-2.555-5.55-6.385-5.55-10.492v-13.497c0-3.251,1.335-6.399,3.708-8.858V74.649
			c-0.208-1.856-1.024-12.908,7.754-22.02c7.617-7.905,19.974-11.913,36.735-11.913c16.764,0,29.121,4.008,36.738,11.916
			c8.777,9.115,7.963,20.161,7.755,22.018V92.6c2.373,2.459,3.708,5.607,3.708,8.858v13.497c0,5.317-3.395,10.023-8.629,12.205
			c-2.676,7.092-6.356,13.664-10.951,19.571c-0.923,1.187-1.817,2.263-2.667,3.208v11.411c0,3.4,2.078,6.456,5.419,7.98
			l35.417,16.116C207.607,188.63,212.977,193.788,216.082,199.979L216.082,199.979z"/>
	</g>
</g>
<g>
	<path d="M133.716,267.431C59.985,267.431,0,207.447,0,133.715C0,59.985,59.985,0,133.716,0c73.73,0,133.715,59.984,133.715,133.715
		C267.43,207.447,207.446,267.431,133.716,267.431z M133.716,12C66.601,12,12,66.601,12,133.715s54.602,121.716,121.716,121.716
		S255.43,200.83,255.43,133.715S200.83,12,133.716,12z"/>
</g>
</svg>
