<?xml version="1.0" encoding="utf-8"?>
<!-- Generator: Adobe Illustrator 21.1.0, SVG Export Plug-In . SVG Version: 6.00 Build 0)  -->
<svg version="1.1" id="Слой_1" xmlns="http://www.w3.org/2000/svg" xmlns:xlink="http://www.w3.org/1999/xlink" x="0px" y="0px"
	 viewBox="0 0 180.4 157.6" style="enable-background:new 0 0 180.4 157.6;" xml:space="preserve">
<g id="Слой_x0020_1">
	<path d="M34.3,44.7L92,73.4c1.4,0.7,2.3,2.1,2.3,3.6l0,76.6c0,2.2-1.8,4.1-4.1,4.1c-0.7,0-1.4-0.2-2-0.6l-57.7-28.7
		c-1.4-0.7-2.3-2.1-2.3-3.6l0-76.6c0-2.2,1.8-4.1,4.1-4.1C33,44.2,33.7,44.4,34.3,44.7z M86.1,79.5L36.3,54.7v67.5L86.1,147V79.5z
		 M144.1,54.7L94.3,79.5V147l49.8-24.7V54.7z M88.4,73.4l57.7-28.7c0.6-0.4,1.3-0.6,2-0.6c2.2,0,4.1,1.8,4.1,4.1v76.6
		c0,1.5-0.8,2.9-2.3,3.6l-57.7,28.7c-0.6,0.4-1.3,0.6-2,0.6c-2.2,0-4.1-1.8-4.1-4.1V77C86.2,75.5,87,74.1,88.4,73.4L88.4,73.4z
		 M33.5,43.6l49.4-14L64.6,8.5L11.8,20.2C11.8,20.2,33.5,43.6,33.5,43.6z M91.3,35.7l-58,16.4c-1.4,0.4-3,0-4.1-1.1L1.1,20.6
		c-0.5-0.5-0.8-1.2-1-1.9c-0.5-2.2,0.9-4.3,3.1-4.8L65,0.1c1.4-0.4,3,0.1,4.1,1.3l24,27.5c0.5,0.5,0.8,1.1,1,1.7
		C94.7,32.8,93.5,35.1,91.3,35.7L91.3,35.7z M148.2,48.2L90.2,77l-58-28.8l58-16.4L148.2,48.2z M147.1,52.1l-58-16.4
		c-2.2-0.6-3.4-2.8-2.8-5c0.2-0.7,0.5-1.3,1-1.7l24-27.5c1-1.2,2.6-1.6,4.1-1.3l61.9,13.7c2.2,0.5,3.6,2.6,3.1,4.8
		c-0.2,0.7-0.5,1.4-1,1.9L151.1,51C150.1,52.1,148.5,52.5,147.1,52.1z M97.5,29.6l49.4,14l21.7-23.4L115.9,8.5L97.5,29.6z"/>
</g>
</svg>
