<?xml version="1.0" encoding="utf-8"?>
<!-- Generator: Adobe Illustrator 21.1.0, SVG Export Plug-In . SVG Version: 6.00 Build 0)  -->
<svg version="1.1" id="Слой_1" xmlns="http://www.w3.org/2000/svg" xmlns:xlink="http://www.w3.org/1999/xlink" x="0px" y="0px"
	 viewBox="0 0 189.4 131.7" style="enable-background:new 0 0 189.4 131.7;" xml:space="preserve">
<g id="Слой_x0020_1">
	<path d="M23.5,0h142.3c6.5,0,12.3,2.7,16.6,6.9l0,0c4.3,4.3,6.9,10.1,6.9,16.6v84.6c0,6.5-2.6,12.4-6.9,16.6
		c-4.3,4.3-10.2,6.9-16.6,6.9H23.5c-6.5,0-12.4-2.6-16.6-6.9l0,0C2.7,120.5,0,114.6,0,108.1V23.5c0-6.5,2.6-12.3,6.9-16.6l0,0
		C11.2,2.6,17.1,0,23.5,0z M10.8,38.3h167.8V23.5c0-3.5-1.4-6.7-3.7-9v0c-2.3-2.3-5.5-3.7-9-3.7H23.5c-3.5,0-6.7,1.4-9,3.7l0,0
		c-2.3,2.3-3.7,5.5-3.7,9C10.8,23.5,10.8,38.3,10.8,38.3z M178.6,58.9H10.8v49.2c0,3.5,1.4,6.7,3.7,9h0c2.3,2.3,5.5,3.7,9,3.7h142.3
		c3.5,0,6.7-1.4,9-3.7c2.3-2.3,3.7-5.5,3.7-9V58.9z"/>
</g>
</svg>
