<?xml version="1.0" encoding="utf-8"?>
<!-- Generator: Adobe Illustrator 21.1.0, SVG Export Plug-In . SVG Version: 6.00 Build 0)  -->
<svg version="1.1" id="Слой_1" xmlns="http://www.w3.org/2000/svg" xmlns:xlink="http://www.w3.org/1999/xlink" x="0px" y="0px"
	 viewBox="0 0 154 136.1" style="enable-background:new 0 0 154 136.1;" xml:space="preserve">
<g id="Слой_x0020_1">
	<g id="_2088613459888">
		<g>
			<g>
				<path d="M142.8,13.4C135.2,4.7,124.7,0,113.1,0C96.9,0,86.6,9.7,80.8,17.8c-1.5,2.1-2.8,4.2-3.8,6.2c-1.1-2-2.3-4.1-3.8-6.2
					C67.4,9.7,57.1,0,40.9,0C29.4,0,18.8,4.7,11.2,13.4C4,21.6,0,32.6,0,44.4c0,12.8,5,24.7,15.7,37.5c9.6,11.4,23.4,23.2,39.4,36.8
					c6,5.1,12.1,10.3,18.7,16.1L74,135c0.9,0.7,1.9,1.1,3,1.1c1.1,0,2.1-0.4,3-1.1l0.2-0.2c6.6-5.7,12.7-11,18.7-16.1
					c16-13.6,29.8-25.4,39.4-36.8C149,69.1,154,57.2,154,44.4C154,32.6,150,21.6,142.8,13.4L142.8,13.4z M93,111.8
					c-5.1,4.4-10.4,8.9-16,13.7c-5.6-4.8-10.9-9.4-16-13.7C29.7,85.2,9,67.5,9,44.4c0-9.6,3.2-18.5,9-25C23.9,12.7,32,9,40.9,9
					c12.4,0,20.4,7.6,24.9,14c4.1,5.7,6.2,11.5,6.9,13.7c0.6,1.9,2.3,3.1,4.3,3.1s3.7-1.3,4.3-3.1c0.7-2.2,2.8-8,6.9-13.7
					c4.5-6.4,12.5-14,24.9-14c8.9,0,17,3.7,22.9,10.3c5.8,6.6,9,15.5,9,25C145,67.5,124.3,85.2,93,111.8z"/>
			</g>
		</g>
	</g>
</g>
</svg>
