<?xml version="1.0" encoding="utf-8"?>
<!-- Generator: Adobe Illustrator 21.1.0, SVG Export Plug-In . SVG Version: 6.00 Build 0)  -->
<svg version="1.1" id="layer" xmlns="http://www.w3.org/2000/svg" xmlns:xlink="http://www.w3.org/1999/xlink" x="0px" y="0px"
	 viewBox="0 0 600.1 103.9" style="enable-background:new 0 0 600.1 103.9;" xml:space="preserve">
<polygon points="31,1.6 31,41.4 15,41.4 15,1.6 0,1.6 0,102.1 15,102.1 15,54 31,54 31,102.1 46,102.1 46,1.6 "/>
<g>
	<path d="M85.1,89.6c-3.2,0-6.3-3.6-7.4-9.2c-1.8-8.9-2.1-23.6-2.1-28.6c0-4.9,0.1-19.6,2.1-28.5c1.1-5.4,4.2-9.2,7.4-9.2
		c3.2,0,6.3,3.8,7.4,9.2c2,8.9,2.1,23.6,2.1,28.5c0,5-0.3,19.7-2.1,28.6C91.2,86,88.4,89.6,85.1,89.6 M85.1,103.6
		c7,0,13.4-4.3,17.5-12.6c4.8-9.6,7-21.1,7-39.3c0-18-2.2-29.6-7-39.1C98.5,4.4,92.3,0,85.1,0c-7,0-13.4,4.3-17.5,12.6
		c-4.8,9.5-7,21.1-7,39.1c0,18.2,2.2,29.6,7,39.3C71.7,99.3,78.1,103.6,85.1,103.6"/>
	<polygon points="124.7,102.1 157.1,102.1 157.1,88.1 139.7,88.1 139.7,1.6 124.7,1.6 	"/>
	<polygon points="170.2,102.1 202.6,102.1 202.6,88.1 185.2,88.1 185.2,1.6 170.2,1.6 	"/>
	<rect x="217.4" y="1.6" width="14.9" height="100.4"/>
	<path d="M247,101.2c2.2,1,6.4,2.4,12,2.4c14.9,0,25.6-11.3,25.6-25.1c0-9.2-3.3-16.3-7.4-24.4c-6.1-12.3-14.9-22.6-14.9-30.9
		c0-4.7,3.3-8.1,8.8-8.1c4.7,0,7.8,2.5,9.9,4.3V3.5c-4.9-2.9-10.1-3.4-12.6-3.4c-14.5,0-21.1,10.9-21.1,22.6c0,10.9,6,19.4,12,32.1
		c5,10.8,10.3,18,10.3,23.2c0,5.9-3.4,10.6-12.2,10.6c-4.2,0-7.4-1.7-10.5-3.6v16.2H247z"/>
	<polygon points="304.7,102.1 319.6,102.1 319.6,15.6 330.2,15.6 330.2,1.6 294.1,1.6 294.1,15.6 304.7,15.6 	"/>
	<polygon points="342.1,102.1 375.5,102.1 375.5,88.1 357,88.1 357,56 373.7,56 373.7,42 357,42 357,15.6 375.5,15.6 375.5,1.6 
		342.1,1.6 	"/>
	<path d="M403.5,15.6c8.8,1,13.7,8,13.7,18.9c0,16.5-8.4,19.6-13.7,20.8V15.6z M388.6,102.1h14.9V66.9h0.3l14.5,35.2h16.9L415.9,63
		c8.9-4.6,16.2-12.7,16.2-28.5c0-10.5-3.8-18.7-7.1-22.4c-9.2-10.5-21.9-10.5-36.5-10.5v100.5H388.6z"/>
	<path d="M510.7,78.2c-0.4,3.8-2.9,10.5-8.7,10.5c-3.3,0-6.1-2.4-7.7-7.8c-1.8-6.2-2.9-10.5-2.9-25.8c0-6.4,0-19.3,2.7-30.4
		c1.7-7.1,5.2-9.5,8-9.5c4.9,0,6.4,5,7,9.8l12.3-6.3c-0.4-8.8-8.5-18.4-19.6-18.4c-4.6,0-13,2.2-18.9,13.6
		c-6,11.5-6.4,27.5-6.4,40.4c0,20.7,2.2,30.7,6.7,38.3c4.7,8.1,11,11.3,18,11.3c11.5,0,18.9-10.3,20.7-17.6L510.7,78.2z"/>
	<path d="M553.3,90.3c-6,0-6.4-9.8-6.4-22.2c0-13.5,0.4-22.2,6.4-22.2s6.4,8.7,6.4,22.2C559.7,80.5,559.3,90.3,553.3,90.3
		 M553.3,103.6c5.6,0,10.1-2.7,13.6-7.5c4.1-5.6,6.1-15.9,6.1-27.9c0-11.9-2.1-22.4-6.1-27.9c-3.5-5-8-7.5-13.6-7.5
		s-10.1,2.7-13.6,7.5c-4,5.6-6.1,16.1-6.1,27.9c0,12,2.1,22.4,6.1,27.9C543.1,100.8,547.7,103.6,553.3,103.6"/>
	<rect x="586.1" y="85.6" width="14" height="16.5"/>
</g>
</svg>
