<?xml version="1.0" encoding="utf-8"?>
<!-- Generator: Adobe Illustrator 21.1.0, SVG Export Plug-In . SVG Version: 6.00 Build 0)  -->
<svg version="1.1" id="Слой_1" xmlns="http://www.w3.org/2000/svg" xmlns:xlink="http://www.w3.org/1999/xlink" x="0px" y="0px"
	 viewBox="0 0 165.5 105.3" style="enable-background:new 0 0 165.5 105.3;" xml:space="preserve">
<g id="Слой_x0020_1">
	<path d="M8.7,0h148c2.4,0,4.6,1,6.2,2.6c1.6,1.6,2.6,3.8,2.6,6.2v87.8c0,2.4-1,4.6-2.6,6.2c-1.6,1.6-3.8,2.6-6.2,2.6H8.7
		c-2.4,0-4.6-1-6.2-2.6C1,101.1,0,98.9,0,96.5V8.7c0-2.4,1-4.6,2.6-6.2S6.3,0,8.7,0L8.7,0z M160.8,6.8l-52.2,40L161,97.9
		c0.1-0.4,0.2-0.9,0.2-1.4V8.7C161.3,8,161.1,7.4,160.8,6.8z M105.1,49.4L82.8,66.5L60.4,49.4L7.5,100.8c0.4,0.1,0.8,0.2,1.2,0.2
		h148c0.4,0,0.8-0.1,1.2-0.2L105.1,49.4z M57,46.8L4.7,6.8C4.4,7.4,4.3,8,4.3,8.7v87.8c0,0.5,0.1,0.9,0.2,1.4L57,46.8z M8.4,4.3
		l74.3,56.9l74.3-56.9c-0.1,0-0.2,0-0.3,0H8.7C8.6,4.3,8.5,4.3,8.4,4.3z"/>
</g>
</svg>
