<?xml version="1.0" encoding="utf-8"?>
<!-- Generator: Adobe Illustrator 21.1.0, SVG Export Plug-In . SVG Version: 6.00 Build 0)  -->
<svg version="1.1" id="svg15670" xmlns:svg="http://www.w3.org/2000/svg"
	 xmlns="http://www.w3.org/2000/svg" xmlns:xlink="http://www.w3.org/1999/xlink" x="0px" y="0px" viewBox="0 0 281 27"
	 style="enable-background:new 0 0 281 27;" xml:space="preserve">
<style type="text/css">
	.st0{fill:#343434;}
</style>
<path id="path15602" class="st0" d="M190.382,8.513c-2.266,0-4.238,1.621-4.238,4.062c0,1.914,1.484,2.988,1.895,3.359
	c-2.031,1.055-4.102,2.656-4.16,5.469c0.059,2.188,1.582,4.863,5.488,4.863c2.09,0,3.828-0.84,5.625-2.656
	c0.352,0.566,0.938,1.406,1.309,1.797c0.508,0.508,1.895,0.859,3.184,0.859c1.348,0,3.32-0.508,4.648-1.953
	c0.078-0.273-0.117-0.527-0.391-0.566c-0.566,0.41-1.445,0.742-2.188,0.742c-1.934,0-3.184-1.113-4.336-2.91
	c-0.176-0.293-0.215-0.547-0.039-0.801c1.191-1.699,2.168-3.164,2.813-4.258c0.938-1.582,1.504-2.363,2.91-2.656l1.25-0.273
	c0.215-0.215,0.137-0.664-0.059-0.762c-0.625,0.059-3.164,0.156-4.551,0.156h-1.504c-0.273,0.117-0.332,0.527-0.078,0.762
	l0.781,0.137c0.762,0.137,0.664,0.41,0.195,1.445c-0.781,1.738-1.738,3.594-2.617,4.746c-1.426-2.227-2.461-3.477-4.551-4.824
	c0.918-0.547,2.559-1.191,2.559-3.242C194.327,10.134,192.804,8.513,190.382,8.513L190.382,8.513z M192.003,19.041
	c0.801,0.879,1.563,1.914,2.207,2.949c0.332,0.508,0.332,0.664-0.078,1.035c-0.84,0.762-1.953,1.25-3.164,1.25
	c-2.363,0-4.258-1.621-4.258-3.887c0-1.367,0.742-2.754,1.66-3.398c0.215-0.176,0.488-0.332,0.625-0.332
	S190.733,17.634,192.003,19.041L192.003,19.041z M190.265,9.49c1.035,0,1.719,0.996,1.719,2.422c0,1.133-0.391,2.031-0.898,2.598
	c-0.059,0.039-0.195,0.137-0.273,0.137c-0.059,0-0.273-0.137-0.43-0.234c-1.191-0.879-1.855-1.699-1.855-2.832
	C188.526,10.33,189.327,9.49,190.265,9.49z"/>
<path id="path15606" class="st0" d="M215.113,2.166c-1.582,0-3.203-0.039-4.453-0.117c-0.293,0.156-0.332,0.801-0.078,1.055
	l0.469,0.059c1.699,0.254,2.012,0.371,2.012,4.18V20.72c0,3.809-0.313,3.926-2.012,4.141l-0.801,0.098
	c-0.234,0.254-0.215,0.898,0.078,1.055c1.66-0.078,3.281-0.117,4.863-0.117c1.582,0,3.203,0.039,5.488,0.117
	c0.293-0.156,0.332-0.801,0.078-1.055l-1.504-0.176c-1.699-0.137-2.012-0.254-2.012-4.063v-5.039c0-0.898,0.02-0.977,0.859-0.977
	h2.109c3.145,0,3.711,0.078,4.043,1.582l0.273,1.406c0.215,0.254,0.898,0.254,1.094-0.039c-0.039-1.113-0.117-2.402-0.117-3.73
	c0-1.328,0.078-2.656,0.117-3.594c-0.195-0.293-0.879-0.293-1.094-0.039l-0.273,1.23c-0.332,1.504-0.898,1.582-4.043,1.582h-2.109
	c-0.84,0-0.859-0.078-0.859-0.977V5.681c0-2.012,0-2.07,1.504-2.07h1.836c1.152,0,2.051,0.02,3.008,0.273
	c1.367,0.371,1.953,1.406,2.305,3.496c0.371,0.215,1.016,0.137,1.152-0.137c-0.059-1.699-0.059-4.395-0.059-5.195
	c-0.762,0.078-2.773,0.117-5.078,0.117L215.113,2.166L215.113,2.166z"/>
<path id="path15610" class="st0" d="M233.444,15.388c0-1.465,0.039-3.184,0.117-4.375c-0.117-0.176-0.293-0.254-0.508-0.293
	c-0.996,0.605-2.812,1.406-4.668,1.953c-0.156,0.176-0.156,0.664-0.039,0.82l0.43,0.254c0.898,0.527,0.898,0.957,0.898,2.578v5.293
	c0,2.656-0.137,3.047-1.367,3.242l-0.645,0.098c-0.254,0.254-0.215,0.898,0.078,1.055c1.367-0.078,2.578-0.117,3.77-0.117
	c1.328,0,2.559,0.039,3.887,0.117c0.273-0.156,0.313-0.801,0.059-1.055l-0.645-0.098c-1.211-0.195-1.367-0.586-1.367-3.242
	L233.444,15.388L233.444,15.388z M231.549,6.482c1.367,0,2.305-0.977,2.305-2.266s-0.938-2.266-2.305-2.266
	s-2.305,0.977-2.305,2.266S230.182,6.482,231.549,6.482z"/>
<path id="path15618" class="st0" d="M246.326,13.318c0.293-0.195,0.43-0.508,0.469-0.938c0-0.371-0.078-0.645-0.293-0.762h-3.555
	c-0.684,0-0.684-0.098-0.684-0.684V8.787c-0.176-0.293-0.684-0.41-1.016-0.195c-0.508,0.977-1.289,1.738-1.973,2.246
	c-0.801,0.566-1.621,1.035-2.832,1.504c-0.332,0.215-0.254,0.781,0.098,0.977h1.27c0.566,0,0.645,0.019,0.645,1.289v7.305
	c0,2.52,0.605,4.492,4.023,4.492c2.188,0,3.848-0.977,4.57-1.973c0.059-0.41-0.156-0.684-0.469-0.723
	c-0.586,0.391-1.016,0.645-1.738,0.645c-2.285,0-2.617-2.012-2.617-4.277v-5.547c0-1.152,0.039-1.211,0.684-1.211L246.326,13.318
	L246.326,13.318z"/>
<path id="path15614" class="st0" d="M256.93,11.228c-5.781,0-8.848,3.848-8.848,8.047c0,2.09,0.82,3.965,2.09,5.176
	c1.211,1.191,3.086,1.953,5,1.953c2.266,0,5.02-1.016,6.328-3.926c-0.039-0.43-0.43-0.684-0.762-0.645
	c-0.723,1.035-1.543,1.914-3.887,1.914c-3.262,0-5.137-2.773-5.137-5.684c0-3.379,2.129-5.391,4.18-5.391
	c1.387,0,2.48,1.133,3.262,2.188c0.254,0.313,0.43,0.391,0.684,0.391c0.293,0,0.898-0.547,0.898-1.68
	c0-0.84-0.254-1.406-0.723-1.836C259.02,11.365,257.965,11.228,256.93,11.228z"/>
<path id="path15622" class="st0" d="M268.613,5.681c0-1.543,0.039-3.77,0.117-5.215c-0.078-0.176-0.293-0.313-0.508-0.273
	c-1.484,0.566-3.32,1.328-4.707,1.719c-0.254,0.117-0.215,0.684,0,0.82l0.488,0.332c0.801,0.469,0.84,0.723,0.84,3.125v15.43
	c0,2.656-0.156,3.047-1.367,3.242l-0.801,0.098c-0.254,0.254-0.215,0.898,0.078,1.055c1.504-0.078,2.734-0.117,3.887-0.117
	c1.328,0,2.559,0.039,3.809,0.117c0.293-0.156,0.332-0.801,0.078-1.055l-0.547-0.078c-1.23-0.215-1.367-0.605-1.367-3.262v-4.824
	c0-1.406,0.039-1.934,0.43-2.363c0.43-0.469,1.27-1.055,2.441-1.055c2.129,0,2.891,1.445,2.891,3.164v5.078
	c0,2.656-0.156,3.047-1.367,3.262l-0.547,0.078c-0.254,0.254-0.215,0.898,0.078,1.055c1.25-0.078,2.48-0.117,3.672-0.117
	c1.328,0,2.539,0.039,4.063,0.117c0.352-0.156,0.391-0.801,0.059-1.055l-0.82-0.098c-1.23-0.195-1.367-0.586-1.367-3.242v-5.352
	c0-3.066-1.504-5.039-4.609-5.039c-1.797,0-3.34,0.781-4.59,1.719c-0.254,0-0.332-0.176-0.332-0.605L268.613,5.681L268.613,5.681z"
	/>
<path id="path15558" class="st0" d="M13.777,17.497c0.996,0,1.113,0,1.465,0.977l1.699,4.883c0.469,1.543,0.352,1.758-0.938,1.914
	l-0.801,0.098c-0.215,0.215-0.176,0.859,0.117,1.055c1.25-0.039,2.832-0.117,4.395-0.117c1.855,0,3.184,0.039,4.668,0.117
	c0.254-0.195,0.254-0.801-0.039-1.055l-0.547-0.098c-1.816-0.332-2.012-0.586-2.832-2.988L15.788,7.204
	c-0.586-1.602-1.055-3.301-1.621-4.922C14.03,2.107,13.835,1.99,13.562,1.99c-0.078,0-1.27,1.484-2.52,1.738
	c0.098,0.605-0.215,1.465-0.684,2.617L5.437,19.158c-0.762,1.934-1.328,3.438-1.777,4.375c-0.527,1.191-0.918,1.523-1.973,1.66
	l-1.074,0.176c-0.254,0.332-0.215,0.859,0.039,1.055c1.25-0.078,2.363-0.117,3.555-0.117c1.484,0.039,2.656,0.039,3.809,0.117
	c0.293-0.156,0.332-0.801,0.078-1.055l-1.035-0.176C5.71,25.017,5.573,24.9,6.296,22.79l1.465-4.316
	c0.332-0.977,0.293-0.977,1.23-0.977H13.777L13.777,17.497z M9.558,15.876c-0.859,0-0.957,0-0.566-1.035l1.504-4.219
	c0.645-1.68,0.938-2.578,1.074-2.832h0.078c0.176,0.254,0.391,0.938,1.016,2.832l1.504,4.316c0.293,0.859,0.137,0.938-0.859,0.938
	H9.558L9.558,15.876z"/>
<path id="path15562" class="st0" d="M29.625,6.091c0-1.543,0.039-3.77,0.117-5.215c-0.078-0.176-0.293-0.313-0.508-0.273
	c-1.484,0.566-3.34,1.328-4.707,1.719c-0.254,0.117-0.215,0.684,0,0.82l0.508,0.332c0.781,0.469,0.82,0.723,0.82,3.125V22.81
	c0,1.348-0.117,3.242-0.117,3.379c0,0.117,0.215,0.254,0.371,0.254c0.098,0,0.176,0,0.254-0.02c0.215-0.254,0.469-0.586,0.898-0.586
	c0.43,0,2.109,0.977,4.785,0.977c4.707,0,8.516-2.949,8.516-8.066c0-3.984-2.656-7.109-6.875-7.109c-1.426,0-2.617,0.469-3.77,1.152
	c-0.215,0-0.293-0.156-0.293-0.645V6.091L29.625,6.091z M29.625,15.954c0-1.23,0.078-1.699,0.391-1.914
	c0.293-0.215,1.055-0.469,1.777-0.469c2.539,0,4.766,2.266,4.766,6.484c0,3.047-1.328,5.313-3.73,5.313
	c-1.035,0-1.914-0.527-2.402-1.211c-0.586-0.762-0.801-2.031-0.801-3.613C29.625,20.544,29.625,15.954,29.625,15.954z"/>
<path id="path15566" class="st0" d="M53.099,17.79c1.445,0,2.266-0.156,2.48-0.469c0.156-0.293,0.195-0.508,0.195-0.84
	c0-3.125-2.734-4.844-5.391-4.844c-4.824,0-7.598,3.926-7.598,7.988c0,4.082,2.773,7.188,6.934,7.188
	c2.207,0,4.863-1.074,6.094-3.965c-0.039-0.313-0.449-0.684-0.801-0.566c-0.82,1.328-2.012,1.797-3.457,1.797
	c-3.203,0-5.43-2.598-5.43-5.82c0-0.43,0.078-0.469,0.762-0.469C46.888,17.79,53.099,17.79,53.099,17.79z M46.927,16.345
	c-0.43,0-0.508-0.098-0.508-0.254c0-0.762,1.113-3.086,3.516-3.086c1.563,0,2.383,1.035,2.383,2.324
	c0,0.332-0.137,0.625-0.352,0.762c-0.254,0.156-0.723,0.254-1.777,0.254H46.927z"/>
<path id="path15570" class="st0" d="M58.863,22.029c0,2.656-0.156,3.047-1.367,3.242l-0.645,0.098
	c-0.254,0.254-0.215,0.898,0.059,1.055c1.367-0.078,2.559-0.117,3.75-0.117c1.328,0,2.559,0.039,4.707,0.117
	c0.293-0.156,0.332-0.801,0.078-1.055l-1.406-0.137c-1.25-0.156-1.406-0.547-1.406-3.203v-4.922c0-1.777,0.215-2.598,1.055-2.598
	c0.215,0,0.82,0.078,1.719,0.684c0.293,0.176,0.605,0.293,0.977,0.293c0.957,0,2.012-0.684,2.012-2.09
	c0-0.938-0.723-1.758-1.992-1.758c-1.211,0-2.402,1.074-3.516,1.875c-0.215,0-0.352-0.195-0.352-0.43
	c0-0.332,0.02-0.938,0.059-1.621c-0.059-0.215-0.273-0.332-0.488-0.332c-1.094,0.645-2.988,1.445-4.531,1.953
	c-0.156,0.176-0.156,0.664-0.039,0.82l0.43,0.254c0.898,0.527,0.898,0.957,0.898,2.578L58.863,22.029L58.863,22.029z"/>
<path id="path15574" class="st0" d="M77.45,11.638c-5.781,0-8.848,3.848-8.848,8.047c0,2.09,0.82,3.965,2.09,5.176
	c1.211,1.191,3.086,1.953,5,1.953c2.266,0,5.02-1.016,6.328-3.926c-0.039-0.43-0.43-0.684-0.762-0.645
	c-0.723,1.035-1.543,1.914-3.887,1.914c-3.262,0-5.137-2.773-5.137-5.684c0-3.379,2.129-5.391,4.18-5.391
	c1.387,0,2.48,1.133,3.262,2.188c0.254,0.313,0.43,0.391,0.684,0.391c0.293,0,0.898-0.547,0.898-1.68
	c0-0.84-0.254-1.406-0.723-1.836C79.54,11.775,78.485,11.638,77.45,11.638z"/>
<path id="path15578" class="st0" d="M85.075,22.029c0,2.656-0.156,3.047-1.367,3.242l-0.645,0.098
	c-0.254,0.254-0.215,0.898,0.059,1.055c1.367-0.078,2.559-0.117,3.75-0.117c1.328,0,2.559,0.039,4.707,0.117
	c0.293-0.156,0.332-0.801,0.078-1.055l-1.406-0.137c-1.25-0.156-1.406-0.547-1.406-3.203v-4.922c0-1.777,0.215-2.598,1.055-2.598
	c0.215,0,0.82,0.078,1.719,0.684c0.293,0.176,0.605,0.293,0.977,0.293c0.957,0,2.012-0.684,2.012-2.09
	c0-0.938-0.723-1.758-1.992-1.758c-1.211,0-2.402,1.074-3.516,1.875c-0.215,0-0.352-0.195-0.352-0.43
	c0-0.332,0.02-0.938,0.059-1.621c-0.059-0.215-0.273-0.332-0.488-0.332c-1.094,0.645-2.988,1.445-4.531,1.953
	c-0.156,0.176-0.156,0.664-0.039,0.82l0.43,0.254c0.898,0.527,0.898,0.957,0.898,2.578L85.075,22.029L85.075,22.029z"/>
<path id="path15582" class="st0" d="M102.686,11.638c-4.199,0-7.871,3.027-7.871,7.832c0,4.707,3.457,7.344,7.598,7.344
	c4.277,0,7.871-2.656,7.871-7.773C110.283,14.372,106.748,11.638,102.686,11.638z M99.053,18.943c0-4.004,1.445-5.859,3.281-5.859
	c2.656,0,3.691,3.555,3.691,6.562c0,2.773-0.703,5.723-3.184,5.723C100.244,25.368,99.053,22.204,99.053,18.943z"/>
<path id="path15586" class="st0" d="M113.117,22.029c0,2.656-0.137,3.047-1.367,3.242l-0.645,0.098
	c-0.254,0.254-0.215,0.898,0.078,1.055c1.367-0.078,2.539-0.117,3.73-0.117c1.328,0,2.559,0.039,3.809,0.117
	c0.293-0.156,0.332-0.801,0.078-1.055l-0.547-0.078c-1.211-0.215-1.367-0.605-1.367-3.262v-4.824c0-1.406,0.039-1.719,0.469-2.305
	c0.391-0.527,1.328-1.113,2.559-1.113c2.09,0,2.734,1.445,2.734,3.359v4.883c0,2.656-0.137,3.047-1.367,3.262l-0.469,0.078
	c-0.254,0.254-0.215,0.898,0.078,1.055c1.172-0.078,2.402-0.117,3.594-0.117c1.328,0,2.52,0.039,3.77,0.117
	c0.293-0.156,0.332-0.801,0.078-1.055l-0.547-0.078c-1.211-0.215-1.367-0.605-1.367-3.262v-5.293c0-0.996,0.078-1.426,0.43-1.855
	c0.43-0.547,1.367-1.094,2.422-1.094c2.266,0,2.91,1.445,2.91,3.359v4.883c0,2.656-0.156,3.047-1.367,3.242l-0.586,0.098
	c-0.254,0.254-0.215,0.898,0.078,1.055c1.289-0.078,2.52-0.117,3.711-0.117c1.328,0,2.539,0.039,4.102,0.117
	c0.137-0.156,0.313-0.801,0-1.055l-0.801-0.098c-1.23-0.195-1.367-0.586-1.367-3.242v-5.566c0-2.813-1.367-4.824-4.395-4.824
	c-1.68,0-2.91,0.645-4.59,1.68c-0.43,0.254-0.645,0.371-0.801,0.371c-0.137,0-0.352-0.215-0.566-0.547
	c-0.508-0.684-1.699-1.504-3.242-1.504c-2.441,0-3.379,0.859-5.137,1.797c-0.215-0.039-0.332-0.117-0.332-0.352
	c0-0.293,0-0.977,0.078-1.66c-0.078-0.156-0.215-0.293-0.469-0.293c-1.152,0.645-3.086,1.504-4.668,1.953
	c-0.156,0.176-0.156,0.664-0.039,0.82l0.43,0.254c0.898,0.527,0.898,0.957,0.898,2.578L113.117,22.029L113.117,22.029z"/>
<path id="path15590" class="st0" d="M143.496,6.091c0-1.543,0.039-3.77,0.117-5.215c-0.078-0.176-0.293-0.313-0.508-0.273
	c-1.484,0.566-3.34,1.328-4.707,1.719c-0.254,0.117-0.215,0.684,0,0.82l0.508,0.332c0.781,0.469,0.82,0.723,0.82,3.125V22.81
	c0,1.348-0.117,3.242-0.117,3.379c0,0.117,0.215,0.254,0.371,0.254c0.098,0,0.176,0,0.254-0.02c0.215-0.254,0.469-0.586,0.898-0.586
	s2.109,0.977,4.785,0.977c4.707,0,8.516-2.949,8.516-8.066c0-3.984-2.656-7.109-6.875-7.109c-1.426,0-2.617,0.469-3.77,1.152
	c-0.215,0-0.293-0.156-0.293-0.645L143.496,6.091L143.496,6.091z M143.496,15.954c0-1.23,0.078-1.699,0.391-1.914
	c0.293-0.215,1.055-0.469,1.777-0.469c2.539,0,4.766,2.266,4.766,6.484c0,3.047-1.328,5.313-3.73,5.313
	c-1.035,0-1.914-0.527-2.402-1.211c-0.586-0.762-0.801-2.031-0.801-3.613L143.496,15.954L143.496,15.954z"/>
<path id="path15594" class="st0" d="M161.04,15.798c0-1.465,0.039-3.184,0.117-4.375c-0.117-0.176-0.293-0.254-0.508-0.293
	c-0.996,0.605-2.813,1.406-4.668,1.953c-0.156,0.176-0.156,0.664-0.039,0.82l0.43,0.254c0.898,0.527,0.898,0.957,0.898,2.578v5.293
	c0,2.656-0.137,3.047-1.367,3.242l-0.645,0.098c-0.254,0.254-0.215,0.898,0.078,1.055c1.367-0.078,2.578-0.117,3.77-0.117
	c1.328,0,2.559,0.039,3.887,0.117c0.273-0.156,0.313-0.801,0.059-1.055l-0.645-0.098c-1.211-0.195-1.367-0.586-1.367-3.242
	L161.04,15.798L161.04,15.798z M159.145,6.892c1.367,0,2.305-0.977,2.305-2.266c0-1.289-0.938-2.266-2.305-2.266
	s-2.305,0.977-2.305,2.266C156.84,5.915,157.778,6.892,159.145,6.892z"/>
<path id="path15598" class="st0" d="M174.449,17.79c1.445,0,2.266-0.156,2.48-0.469c0.156-0.293,0.195-0.508,0.195-0.84
	c0-3.125-2.734-4.844-5.391-4.844c-4.824,0-7.598,3.926-7.598,7.988c0,4.082,2.773,7.188,6.934,7.188
	c2.207,0,4.863-1.074,6.094-3.965c-0.039-0.313-0.449-0.684-0.801-0.566c-0.82,1.328-2.012,1.797-3.457,1.797
	c-3.203,0-5.43-2.598-5.43-5.82c0-0.43,0.078-0.469,0.762-0.469C168.238,17.79,174.449,17.79,174.449,17.79z M168.277,16.345
	c-0.43,0-0.508-0.098-0.508-0.254c0-0.762,1.113-3.086,3.516-3.086c1.563,0,2.383,1.035,2.383,2.324
	c0,0.332-0.137,0.625-0.352,0.762c-0.254,0.156-0.723,0.254-1.777,0.254H168.277z"/>
</svg>
