<?xml version="1.0" encoding="utf-8"?>
<!-- Generator: Adobe Illustrator 21.1.0, SVG Export Plug-In . SVG Version: 6.00 Build 0)  -->
<svg version="1.1" id="Слой_1" xmlns="http://www.w3.org/2000/svg" xmlns:xlink="http://www.w3.org/1999/xlink" x="0px" y="0px"
	 viewBox="0 0 180.3 188.4" style="enable-background:new 0 0 180.3 188.4;" xml:space="preserve">
<g id="Слой_x0020_1">
	<g id="_2088608923744">
		<g>
			<path d="M180,148.6c-0.5-1.6-3.7-4-9.7-7.3c-1.6-1-3.9-2.4-6.9-4.2c-3-1.8-5.7-3.4-8.1-4.9c-2.4-1.5-4.7-2.9-6.8-4.3
				c-0.3-0.3-1.4-1.1-3.2-2.4c-1.8-1.3-3.3-2.3-4.5-3c-1.2-0.7-2.5-1-3.7-1.1c-1.7-0.1-4,1.1-6.7,3.5c-2.7,2.4-5.2,5-7.5,7.8
				c-2.3,2.8-4.7,5.4-7.3,7.8c-2.5,2.4-4.6,3.6-6.2,3.5c-0.8,0-1.8-0.3-2.9-0.8c-1.2-0.5-2-0.9-2.6-1.2c-0.6-0.3-1.6-1-3.1-2
				c-1.5-1-2.3-1.5-2.4-1.6c-11.7-7.1-21.6-15.1-29.8-24c-8.2-8.9-15.4-19.4-21.5-31.7c-0.1-0.2-0.5-1-1.4-2.5
				c-0.9-1.5-1.4-2.6-1.7-3.2c-0.3-0.6-0.6-1.5-1-2.7c-0.4-1.2-0.6-2.2-0.5-3c0.1-1.6,1.4-3.5,4-5.9c2.6-2.3,5.4-4.5,8.4-6.6
				c3-2.1,5.8-4.4,8.4-6.9c2.6-2.5,3.9-4.6,4-6.4c0-1.2-0.2-2.5-0.8-3.8c-0.6-1.3-1.4-2.9-2.6-4.8c-1.2-1.9-1.9-3-2.2-3.4
				c-1.2-2.2-2.5-4.6-3.8-7.2c-1.3-2.5-2.7-5.4-4.2-8.5c-1.5-3.1-2.7-5.5-3.6-7.2c-2.8-6.2-5-9.6-6.5-10.2c-0.6-0.3-1.5-0.5-2.7-0.5
				c-2.4-0.1-5.4,0.2-9.3,0.9c-3.8,0.7-6.9,1.5-9.1,2.4C17.8,5,12.9,10.1,7.7,18.8c-4.8,8-7.3,16-7.6,24.1c-0.1,2.4,0,4.7,0.2,6.9
				c0.2,2.2,0.7,4.8,1.3,7.6c0.7,2.8,1.2,4.9,1.6,6.3C3.6,65,4.4,67.4,5.6,71c1.2,3.5,1.9,5.7,2.1,6.5c2.7,8.7,6,16.5,9.9,23.3
				c6.4,11.4,15.4,23.4,26.8,35.7c11.4,12.4,22.6,22.2,33.5,29.6c6.6,4.5,14,8.4,22.5,11.8c0.8,0.3,2.9,1.2,6.3,2.6
				c3.4,1.4,5.8,2.4,7.2,3c1.3,0.5,3.4,1.3,6.1,2.1c2.8,0.9,5.2,1.5,7.5,1.9c2.2,0.4,4.5,0.6,6.9,0.7c8,0.3,16.2-1.6,24.6-5.7
				c9-4.5,14.5-8.9,16.5-13.2c1.1-2.1,2.1-5.1,3.1-8.9c1-3.8,1.6-6.8,1.7-9.2C180.3,150.1,180.2,149.2,180,148.6L180,148.6z"/>
		</g>
	</g>
</g>
</svg>
