<?xml version="1.0" encoding="utf-8"?>
<!-- Generator: Adobe Illustrator 21.1.0, SVG Export Plug-In . SVG Version: 6.00 Build 0)  -->
<svg version="1.1" id="Слой_1" xmlns="http://www.w3.org/2000/svg" xmlns:xlink="http://www.w3.org/1999/xlink" x="0px" y="0px"
	 viewBox="0 0 148.6 189.1" style="enable-background:new 0 0 148.6 189.1;" xml:space="preserve">
<g id="Слой_x0020_1">
	<g id="_2088648904400">
		<g id="XMLID_798_">
			<path id="XMLID_799_" d="M129.4,19.4C116.3,6.9,98.3,0,78.6,0C48.5,0,30,12.3,19.8,22.7C7.2,35.4,0,52.3,0,69.1
				c0,21.1,8.8,37.2,23.5,43.2c1,0.4,2,0.6,3,0.6c3.1,0,5.6-2,6.4-5.3c0.5-1.9,1.7-6.5,2.2-8.5c1.1-4,0.2-5.9-2.1-8.6
				c-4.3-5-6.3-11-6.3-18.8c0-23.1,17.2-47.6,49-47.6c25.3,0,40.9,14.4,40.9,37.5c0,14.6-3.1,28.1-8.8,38
				c-4,6.9-10.9,15.1-21.6,15.1c-4.6,0-8.8-1.9-11.4-5.2c-2.5-3.1-3.3-7.2-2.3-11.4c1.1-4.8,2.7-9.7,4.1-14.5
				c2.7-8.8,5.3-17.1,5.3-23.7c0-11.3-7-18.9-17.3-18.9c-13.2,0-23.5,13.4-23.5,30.4c0,8.4,2.2,14.6,3.2,17
				c-1.7,7-11.5,48.8-13.4,56.6c-1.1,4.6-7.6,40.9,3.2,43.8c12.1,3.3,22.9-32.1,24-36.1c0.9-3.2,4-15.5,5.9-23.1
				c5.8,5.6,15.2,9.4,24.4,9.4c17.3,0,32.8-7.8,43.7-21.9c10.6-13.7,16.4-32.7,16.4-53.7C148.6,47.3,141.6,31.1,129.4,19.4
				L129.4,19.4z"/>
		</g>
	</g>
</g>
</svg>
