<?xml version="1.0" encoding="utf-8"?>
<!-- Generator: Adobe Illustrator 21.1.0, SVG Export Plug-In . SVG Version: 6.00 Build 0)  -->
<svg version="1.1" id="Слой_1" xmlns="http://www.w3.org/2000/svg" xmlns:xlink="http://www.w3.org/1999/xlink" x="0px" y="0px"
	 viewBox="0 0 129.9 185.5" style="enable-background:new 0 0 129.9 185.5;" xml:space="preserve">
<g id="Слой_x0020_1">
	<g id="_2088608915968">
		<g>
			<path d="M65.6,40.7c-13.1,0-23.7,10.6-23.7,23.7c0,13.1,10.6,23.7,23.7,23.7c13.1,0,23.7-10.6,23.7-23.7
				C89.3,51.3,78.6,40.7,65.6,40.7z M65.6,81.3c-9.3,0-16.9-7.6-16.9-16.9c0-9.3,7.6-16.9,16.9-16.9c9.3,0,16.9,7.6,16.9,16.9
				C82.5,73.7,74.9,81.3,65.6,81.3L65.6,81.3z"/>
			<path d="M110.9,19C98.6,6.8,82.3,0,65,0C47.6,0,31.3,6.8,19,19c-22.7,22.7-25.5,65.4-6.1,91.3l52,75.2l52-75.1
				C136.4,84.4,133.6,41.7,110.9,19z M111.4,106.5L65,173.6l-46.5-67.2C0.8,82.9,3.3,44.3,23.8,23.8c11-11,25.6-17,41.1-17
				c15.5,0,30.2,6.1,41.1,17C126.6,44.3,129.1,82.9,111.4,106.5z"/>
		</g>
	</g>
</g>
</svg>
