<?xml version="1.0" encoding="UTF-8"?>
<!DOCTYPE svg PUBLIC "-//W3C//DTD SVG 1.1//EN" "http://www.w3.org/Graphics/SVG/1.1/DTD/svg11.dtd">
<!-- Creator: CorelDRAW 2017 -->
<svg xmlns="http://www.w3.org/2000/svg" xml:space="preserve" width="53.4602mm" height="55.4446mm" version="1.1" style="shape-rendering:geometricPrecision; text-rendering:geometricPrecision; image-rendering:optimizeQuality; fill-rule:evenodd; clip-rule:evenodd"
viewBox="0 0 5346.02 5544.46"
 xmlns:xlink="http://www.w3.org/1999/xlink">
 <defs>
  <style type="text/css">
   <![CDATA[
    .fil0 {fill:black;fill-rule:nonzero}
   ]]>
  </style>
 </defs>
 <g id="Слой_x0020_1">
  <metadata id="CorelCorpID_0Corel-Layer"/>
  <path class="fil0" d="M2153.74 0c594.72,0 1133.15,241.08 1522.91,630.83 389.75,389.76 630.83,928.21 630.83,1522.91 0,589.48 -236.88,1123.65 -620.6,1512.56l1615.62 1623.12c58.24,58.56 57.98,153.28 -0.58,211.52 -58.56,58.24 -153.28,57.98 -211.52,-0.58l-1628.22 -1635.79c-362.7,277.81 -816.3,442.91 -1308.44,442.91 -594.7,0 -1133.15,-241.08 -1522.91,-630.83 -389.75,-389.76 -630.83,-928.19 -630.83,-1522.91 0,-594.7 241.08,-1133.15 630.83,-1522.91 389.76,-389.75 928.21,-630.83 1522.91,-630.83zm1310.81 842.93c-335.44,-335.43 -798.9,-542.93 -1310.81,-542.93 -511.91,0 -975.37,207.5 -1310.81,542.93 -335.43,335.44 -542.93,798.9 -542.93,1310.81 0,511.91 207.5,975.37 542.93,1310.81 335.44,335.43 798.9,542.93 1310.81,542.93 511.91,0 975.37,-207.5 1310.81,-542.93 335.43,-335.44 542.93,-798.9 542.93,-1310.81 0,-511.91 -207.5,-975.37 -542.93,-1310.81z"/>
 </g>
</svg>
