<?xml version="1.0" encoding="utf-8"?>
<!-- Generator: Adobe Illustrator 21.1.0, SVG Export Plug-In . SVG Version: 6.00 Build 0)  -->
<svg version="1.1" id="Слой_1" xmlns="http://www.w3.org/2000/svg" xmlns:xlink="http://www.w3.org/1999/xlink" x="0px" y="0px"
	 viewBox="0 0 117.7 163.2" style="enable-background:new 0 0 117.7 163.2;" xml:space="preserve">
<g id="Слой_x0020_1">
	<path d="M0,37h31.8c0.4-7.4,1.2-14.1,3.1-19.7C38.5,6.6,45.5,0,58.9,0c13.4,0,20.3,6.6,23.9,17.3c1.9,5.6,2.7,12.3,3.1,19.7h31.8
		v101.4c0,13.7-11.2,24.8-24.8,24.8H24.8C11.2,163.2,0,152,0,138.4C0,138.4,0,37,0,37z M40,37h37.8c-0.4-6.6-1.1-12.4-2.7-17.1
		C72.7,12.6,68,8.1,58.9,8.1c-9.1,0-13.8,4.5-16.2,11.7C41.1,24.5,40.3,30.4,40,37z"/>
</g>
</svg>
