<svg aria-hidden="true" style="position: absolute; width: 0; height: 0; overflow: hidden;" version="1.1" xmlns="http://www.w3.org/2000/svg" xmlns:xlink="http://www.w3.org/1999/xlink">
<defs>
<symbol id="icon-circle" viewBox="0 0 32 32">
<title>circle</title>
<path d="M16 1.28c-8.114 0-14.72 6.606-14.72 14.72s6.606 14.72 14.72 14.72c8.114 0 14.72-6.606 14.72-14.72s-6.606-14.72-14.72-14.72zM16 3.84c6.731 0 12.16 5.429 12.16 12.16s-5.429 12.16-12.16 12.16c-6.731 0-12.16-5.429-12.16-12.16s5.429-12.16 12.16-12.16z"></path>
</symbol>
<symbol id="icon-hoolister" viewBox="0 0 185 32">
<title>hoolister</title>
<path d="M9.548 0.493v12.258h-4.928v-12.258h-4.62v30.953h4.62v-14.814h4.928v14.814h4.62v-30.953z"></path>
<path d="M26.21 27.596c-0.986 0-1.94-1.109-2.279-2.834-0.554-2.741-0.647-7.269-0.647-8.808 0-1.509 0.031-6.037 0.647-8.778 0.339-1.663 1.294-2.833 2.279-2.833s1.94 1.17 2.279 2.833c0.616 2.741 0.647 7.269 0.647 8.778 0 1.54-0.092 6.067-0.647 8.808-0.4 1.725-1.263 2.834-2.279 2.834zM26.21 31.908c2.156 0 4.127-1.324 5.39-3.881 1.478-2.957 2.156-6.499 2.156-12.104 0-5.544-0.678-9.116-2.156-12.042-1.263-2.526-3.172-3.881-5.39-3.881-2.156 0-4.127 1.324-5.39 3.881-1.478 2.926-2.156 6.499-2.156 12.042 0 5.605 0.678 9.116 2.156 12.104 1.263 2.556 3.234 3.881 5.39 3.881z"></path>
<path d="M38.406 31.446h9.979v-4.312h-5.359v-26.641h-4.62z"></path>
<path d="M52.42 31.446h9.979v-4.312h-5.359v-26.641h-4.62z"></path>
<path d="M66.957 0.493h4.589v30.922h-4.589v-30.922z"></path>
<path d="M76.073 31.168c0.678 0.308 1.971 0.739 3.696 0.739 4.589 0 7.885-3.48 7.885-7.73 0-2.834-1.016-5.020-2.279-7.515-1.879-3.788-4.589-6.961-4.589-9.517 0-1.448 1.016-2.495 2.71-2.495 1.448 0 2.402 0.77 3.049 1.324v-4.897c-1.509-0.893-3.111-1.047-3.881-1.047-4.466 0-6.499 3.357-6.499 6.961 0 3.357 1.848 5.975 3.696 9.886 1.54 3.326 3.172 5.544 3.172 7.145 0 1.817-1.047 3.265-3.757 3.265-1.294 0-2.279-0.524-3.234-1.109v4.989h0.031z"></path>
<path d="M93.844 31.446h4.589v-26.641h3.265v-4.312h-11.118v4.312h3.265z"></path>
<path d="M105.363 31.446h10.287v-4.312h-5.698v-9.886h5.143v-4.312h-5.143v-8.131h5.698v-4.312h-10.287z"></path>
<path d="M124.273 4.805c2.71 0.308 4.219 2.464 4.219 5.821 0 5.082-2.587 6.037-4.219 6.406v-12.227zM119.684 31.446h4.589v-10.841h0.092l4.466 10.841h5.205l-5.944-12.042c2.741-1.417 4.989-3.911 4.989-8.778 0-3.234-1.17-5.759-2.187-6.899-2.833-3.234-6.745-3.234-11.242-3.234v30.953h0.031z"></path>
<path d="M157.29 24.085c-0.123 1.17-0.893 3.234-2.679 3.234-1.016 0-1.879-0.739-2.371-2.402-0.554-1.91-0.893-3.234-0.893-7.946 0-1.971 0-5.944 0.832-9.363 0.524-2.187 1.602-2.926 2.464-2.926 1.509 0 1.971 1.54 2.156 3.018l3.788-1.94c-0.123-2.71-2.618-5.667-6.037-5.667-1.417 0-4.004 0.678-5.821 4.189-1.848 3.542-1.971 8.47-1.971 12.443 0 6.375 0.678 9.455 2.064 11.796 1.448 2.495 3.388 3.48 5.544 3.48 3.542 0 5.821-3.172 6.375-5.421l-3.449-2.495z"></path>
<path d="M170.41 27.811c-1.848 0-1.971-3.018-1.971-6.837 0-4.158 0.123-6.837 1.971-6.837s1.971 2.68 1.971 6.837c0 3.819-0.123 6.837-1.971 6.837zM170.41 31.908c1.725 0 3.111-0.832 4.189-2.31 1.263-1.725 1.879-4.897 1.879-8.593 0-3.665-0.647-6.899-1.879-8.593-1.078-1.54-2.464-2.31-4.189-2.31s-3.111 0.832-4.189 2.31c-1.232 1.725-1.879 4.959-1.879 8.593 0 3.696 0.647 6.899 1.879 8.593 1.047 1.448 2.464 2.31 4.189 2.31z"></path>
<path d="M180.512 26.364h4.312v5.082h-4.312v-5.082z"></path>
</symbol>
<symbol id="icon-logo" viewBox="0 0 333 32">
<title>logo</title>
<path d="M225.638 10.090c-2.685 0-5.023 1.921-5.023 4.815 0 2.269 1.759 3.542 2.245 3.981-2.407 1.25-4.861 3.148-4.931 6.481 0.069 2.593 1.875 5.764 6.505 5.764 2.477 0 4.537-0.995 6.667-3.148 0.417 0.671 1.111 1.667 1.551 2.13 0.602 0.602 2.245 1.018 3.773 1.018 1.597 0 3.935-0.602 5.509-2.315 0.093-0.324-0.139-0.625-0.463-0.671-0.671 0.486-1.713 0.88-2.593 0.88-2.292 0-3.773-1.319-5.139-3.449-0.208-0.347-0.255-0.648-0.046-0.949 1.412-2.014 2.569-3.75 3.333-5.046 1.111-1.875 1.782-2.801 3.449-3.148l1.481-0.324c0.255-0.255 0.162-0.787-0.069-0.903-0.741 0.069-3.75 0.185-5.394 0.185h-1.782c-0.324 0.139-0.394 0.625-0.093 0.903l0.926 0.162c0.903 0.162 0.787 0.486 0.232 1.713-0.926 2.060-2.060 4.259-3.102 5.625-1.69-2.639-2.917-4.12-5.394-5.718 1.088-0.648 3.032-1.412 3.032-3.843 0-2.222-1.806-4.143-4.676-4.143zM227.559 22.567c0.949 1.042 1.852 2.268 2.616 3.495 0.394 0.602 0.394 0.787-0.093 1.227-0.995 0.903-2.315 1.481-3.75 1.481-2.801 0-5.046-1.921-5.046-4.606 0-1.62 0.88-3.264 1.968-4.028 0.255-0.208 0.579-0.394 0.741-0.394s2.060 1.157 3.565 2.824zM225.499 11.247c1.227 0 2.037 1.181 2.037 2.87 0 1.343-0.463 2.407-1.065 3.079-0.069 0.046-0.231 0.162-0.324 0.162-0.069 0-0.324-0.162-0.509-0.278-1.412-1.042-2.199-2.014-2.199-3.357 0-1.481 0.949-2.477 2.060-2.477z"></path>
<path d="M254.948 2.567c-1.875 0-3.796-0.046-5.278-0.139-0.347 0.185-0.394 0.949-0.093 1.25l0.556 0.069c2.014 0.301 2.384 0.44 2.384 4.954v15.856c0 4.514-0.37 4.653-2.384 4.907l-0.949 0.116c-0.278 0.301-0.255 1.065 0.093 1.25 1.968-0.093 3.889-0.139 5.764-0.139s3.796 0.046 6.505 0.139c0.347-0.185 0.394-0.949 0.093-1.25l-1.782-0.208c-2.014-0.162-2.384-0.301-2.384-4.815v-5.972c0-1.065 0.023-1.157 1.019-1.157h2.5c3.727 0 4.398 0.093 4.792 1.875l0.324 1.667c0.255 0.301 1.065 0.301 1.296-0.046-0.046-1.319-0.139-2.847-0.139-4.421s0.093-3.148 0.139-4.259c-0.231-0.347-1.042-0.347-1.296-0.046l-0.324 1.458c-0.394 1.782-1.065 1.875-4.792 1.875h-2.5c-0.995 0-1.019-0.093-1.019-1.157v-7.639c0-2.384 0-2.454 1.782-2.454h2.176c1.366 0 2.431 0.023 3.565 0.324 1.62 0.44 2.315 1.667 2.731 4.144 0.44 0.255 1.204 0.162 1.366-0.162-0.069-2.014-0.069-5.208-0.069-6.157-0.903 0.093-3.287 0.139-6.019 0.139h-8.056z"></path>
<path d="M276.674 18.238c0-1.736 0.046-3.773 0.139-5.185-0.139-0.208-0.347-0.301-0.602-0.347-1.181 0.718-3.333 1.667-5.532 2.315-0.185 0.208-0.185 0.787-0.046 0.972l0.509 0.301c1.065 0.625 1.065 1.134 1.065 3.056v6.273c0 3.148-0.162 3.611-1.62 3.843l-0.764 0.116c-0.301 0.301-0.255 1.065 0.093 1.25 1.62-0.093 3.056-0.139 4.468-0.139 1.574 0 3.032 0.046 4.606 0.139 0.324-0.185 0.37-0.949 0.069-1.25l-0.764-0.116c-1.435-0.232-1.62-0.694-1.62-3.843v-7.384zM274.429 7.682c1.62 0 2.731-1.157 2.731-2.685s-1.111-2.685-2.731-2.685c-1.62 0-2.731 1.157-2.731 2.685s1.111 2.685 2.731 2.685z"></path>
<path d="M291.942 15.784c0.347-0.231 0.509-0.602 0.556-1.111 0-0.44-0.093-0.764-0.347-0.903h-4.213c-0.81 0-0.81-0.116-0.81-0.81v-2.546c-0.208-0.347-0.81-0.486-1.204-0.231-0.602 1.157-1.528 2.060-2.338 2.662-0.949 0.671-1.921 1.227-3.356 1.782-0.394 0.255-0.301 0.926 0.116 1.157h1.505c0.671 0 0.764 0.023 0.764 1.528v8.657c0 2.986 0.718 5.324 4.769 5.324 2.593 0 4.56-1.157 5.417-2.338 0.069-0.486-0.185-0.81-0.556-0.857-0.694 0.463-1.204 0.764-2.060 0.764-2.708 0-3.102-2.384-3.102-5.069v-6.574c0-1.366 0.046-1.435 0.81-1.435h4.051z"></path>
<path d="M304.509 13.307c-6.852 0-10.486 4.56-10.486 9.537 0 2.477 0.972 4.699 2.477 6.134 1.435 1.412 3.657 2.315 5.926 2.315 2.685 0 5.949-1.204 7.5-4.653-0.046-0.509-0.509-0.81-0.903-0.764-0.856 1.227-1.829 2.268-4.606 2.268-3.866 0-6.088-3.287-6.088-6.736 0-4.005 2.523-6.389 4.954-6.389 1.644 0 2.94 1.343 3.866 2.593 0.301 0.37 0.509 0.463 0.81 0.463 0.347 0 1.065-0.648 1.065-1.991 0-0.995-0.301-1.667-0.856-2.176-1.181-0.44-2.431-0.602-3.657-0.602z"></path>
<path d="M318.356 6.733c0-1.829 0.046-4.468 0.139-6.181-0.093-0.208-0.347-0.37-0.602-0.324-1.759 0.671-3.935 1.574-5.579 2.037-0.301 0.139-0.255 0.81 0 0.972l0.579 0.394c0.949 0.556 0.995 0.857 0.995 3.704v18.287c0 3.148-0.185 3.611-1.62 3.843l-0.949 0.116c-0.301 0.301-0.255 1.065 0.093 1.25 1.782-0.093 3.241-0.139 4.606-0.139 1.574 0 3.032 0.046 4.514 0.139 0.347-0.185 0.394-0.949 0.093-1.25l-0.648-0.093c-1.458-0.255-1.62-0.718-1.62-3.866v-5.718c0-1.667 0.046-2.292 0.509-2.801 0.509-0.556 1.505-1.25 2.894-1.25 2.523 0 3.426 1.713 3.426 3.75v6.019c0 3.148-0.185 3.611-1.62 3.866l-0.648 0.093c-0.301 0.301-0.255 1.065 0.093 1.25 1.481-0.093 2.94-0.139 4.352-0.139 1.574 0 3.009 0.046 4.815 0.139 0.417-0.185 0.463-0.949 0.069-1.25l-0.972-0.116c-1.458-0.232-1.62-0.694-1.62-3.843v-6.343c0-3.634-1.782-5.972-5.463-5.972-2.13 0-3.958 0.926-5.44 2.037-0.301 0-0.394-0.208-0.394-0.718v-7.894z"></path>
<path d="M16.328 20.738c1.181 0 1.319 0 1.736 1.157l2.014 5.787c0.556 1.829 0.417 2.083-1.111 2.268l-0.949 0.116c-0.255 0.255-0.208 1.018 0.139 1.25 1.481-0.046 3.356-0.139 5.208-0.139 2.199 0 3.773 0.046 5.532 0.139 0.301-0.232 0.301-0.949-0.046-1.25l-0.648-0.116c-2.153-0.394-2.384-0.694-3.356-3.542l-6.134-17.87c-0.694-1.898-1.25-3.912-1.921-5.833-0.162-0.208-0.394-0.347-0.718-0.347-0.093 0-1.505 1.759-2.986 2.060 0.116 0.718-0.255 1.736-0.81 3.102l-5.833 15.185c-0.903 2.292-1.574 4.074-2.106 5.185-0.625 1.412-1.088 1.806-2.338 1.968l-1.273 0.208c-0.301 0.394-0.255 1.019 0.046 1.25 1.481-0.093 2.801-0.139 4.213-0.139 1.759 0.046 3.148 0.046 4.514 0.139 0.347-0.185 0.394-0.949 0.093-1.25l-1.227-0.208c-1.597-0.208-1.759-0.347-0.903-2.847l1.736-5.116c0.394-1.157 0.347-1.157 1.458-1.157h5.671zM11.328 18.816c-1.019 0-1.134 0-0.671-1.227l1.782-5c0.764-1.991 1.111-3.056 1.273-3.356h0.093c0.208 0.301 0.463 1.111 1.204 3.356l1.782 5.116c0.347 1.018 0.162 1.111-1.019 1.111h-4.444z"></path>
<path d="M35.111 7.219c0-1.829 0.046-4.468 0.139-6.181-0.093-0.208-0.347-0.37-0.602-0.324-1.759 0.671-3.958 1.574-5.579 2.037-0.301 0.139-0.255 0.81 0 0.972l0.602 0.394c0.926 0.556 0.972 0.856 0.972 3.704v19.213c0 1.597-0.139 3.843-0.139 4.005 0 0.139 0.255 0.301 0.44 0.301 0.116 0 0.208 0 0.301-0.023 0.255-0.301 0.556-0.694 1.065-0.694s2.5 1.157 5.671 1.157c5.579 0 10.093-3.495 10.093-9.56 0-4.722-3.148-8.426-8.148-8.426-1.69 0-3.102 0.556-4.468 1.366-0.255 0-0.347-0.185-0.347-0.764v-7.176zM35.111 18.909c0-1.458 0.093-2.014 0.463-2.268 0.347-0.255 1.25-0.556 2.106-0.556 3.009 0 5.648 2.685 5.648 7.685 0 3.611-1.574 6.296-4.421 6.296-1.227 0-2.269-0.625-2.847-1.435-0.694-0.903-0.949-2.407-0.949-4.282v-5.44z"></path>
<path d="M62.932 21.085c1.713 0 2.685-0.185 2.94-0.556 0.185-0.347 0.231-0.602 0.231-0.995 0-3.704-3.241-5.741-6.389-5.741-5.718 0-9.005 4.653-9.005 9.468 0 4.838 3.287 8.519 8.218 8.519 2.616 0 5.764-1.273 7.222-4.699-0.046-0.37-0.532-0.81-0.949-0.671-0.972 1.574-2.384 2.13-4.097 2.13-3.796 0-6.435-3.079-6.435-6.898 0-0.509 0.093-0.556 0.903-0.556h7.361zM55.617 19.372c-0.509 0-0.602-0.116-0.602-0.301 0-0.903 1.319-3.657 4.167-3.657 1.852 0 2.824 1.227 2.824 2.755 0 0.394-0.162 0.741-0.417 0.903-0.301 0.185-0.856 0.301-2.106 0.301h-3.866z"></path>
<path d="M69.763 26.108c0 3.148-0.185 3.611-1.62 3.843l-0.764 0.116c-0.301 0.301-0.255 1.065 0.069 1.25 1.62-0.093 3.032-0.139 4.444-0.139 1.574 0 3.032 0.046 5.579 0.139 0.347-0.185 0.394-0.949 0.093-1.25l-1.667-0.162c-1.481-0.185-1.667-0.648-1.667-3.796v-5.833c0-2.106 0.255-3.079 1.25-3.079 0.255 0 0.972 0.093 2.037 0.81 0.347 0.208 0.718 0.347 1.157 0.347 1.134 0 2.384-0.81 2.384-2.477 0-1.111-0.856-2.083-2.361-2.083-1.435 0-2.847 1.273-4.167 2.222-0.255 0-0.417-0.231-0.417-0.509 0-0.394 0.023-1.111 0.069-1.921-0.069-0.255-0.324-0.394-0.579-0.394-1.296 0.764-3.542 1.713-5.37 2.315-0.185 0.208-0.185 0.787-0.046 0.972l0.509 0.301c1.065 0.625 1.065 1.134 1.065 3.056v6.273z"></path>
<path d="M91.792 13.793c-6.852 0-10.486 4.56-10.486 9.537 0 2.477 0.972 4.699 2.477 6.134 1.435 1.412 3.657 2.315 5.926 2.315 2.685 0 5.949-1.204 7.5-4.653-0.046-0.509-0.509-0.81-0.903-0.764-0.856 1.227-1.829 2.269-4.606 2.269-3.866 0-6.088-3.287-6.088-6.736 0-4.005 2.523-6.389 4.954-6.389 1.644 0 2.94 1.343 3.866 2.593 0.301 0.37 0.509 0.463 0.81 0.463 0.347 0 1.065-0.648 1.065-1.991 0-0.995-0.301-1.667-0.856-2.176-1.181-0.44-2.431-0.602-3.657-0.602z"></path>
<path d="M100.829 26.108c0 3.148-0.185 3.611-1.62 3.843l-0.764 0.116c-0.301 0.301-0.255 1.065 0.069 1.25 1.62-0.093 3.032-0.139 4.444-0.139 1.574 0 3.032 0.046 5.579 0.139 0.347-0.185 0.394-0.949 0.093-1.25l-1.667-0.162c-1.481-0.185-1.667-0.648-1.667-3.796v-5.833c0-2.106 0.255-3.079 1.25-3.079 0.255 0 0.972 0.093 2.037 0.81 0.347 0.208 0.718 0.347 1.157 0.347 1.134 0 2.384-0.81 2.384-2.477 0-1.111-0.856-2.083-2.361-2.083-1.435 0-2.847 1.273-4.167 2.222-0.255 0-0.417-0.231-0.417-0.509 0-0.394 0.023-1.111 0.069-1.921-0.069-0.255-0.324-0.394-0.579-0.394-1.296 0.764-3.542 1.713-5.37 2.315-0.185 0.208-0.185 0.787-0.046 0.972l0.509 0.301c1.065 0.625 1.065 1.134 1.065 3.056v6.273z"></path>
<path d="M121.701 13.793c-4.977 0-9.329 3.588-9.329 9.282 0 5.579 4.097 8.704 9.005 8.704 5.069 0 9.329-3.148 9.329-9.213 0-5.532-4.19-8.773-9.005-8.773zM117.396 22.451c0-4.745 1.713-6.944 3.889-6.944 3.148 0 4.375 4.213 4.375 7.778 0 3.287-0.833 6.782-3.773 6.782-3.079 0-4.491-3.75-4.491-7.616z"></path>
<path d="M134.065 26.108c0 3.148-0.162 3.611-1.62 3.843l-0.764 0.116c-0.301 0.301-0.255 1.065 0.093 1.25 1.62-0.093 3.009-0.139 4.421-0.139 1.574 0 3.032 0.046 4.514 0.139 0.347-0.185 0.394-0.949 0.093-1.25l-0.648-0.093c-1.435-0.255-1.62-0.718-1.62-3.866v-5.718c0-1.667 0.046-2.037 0.556-2.732 0.463-0.625 1.574-1.319 3.032-1.319 2.477 0 3.241 1.713 3.241 3.982v5.787c0 3.148-0.162 3.611-1.62 3.866l-0.556 0.093c-0.301 0.301-0.255 1.065 0.093 1.25 1.389-0.093 2.847-0.139 4.259-0.139 1.574 0 2.986 0.046 4.468 0.139 0.347-0.185 0.394-0.949 0.093-1.25l-0.648-0.093c-1.435-0.255-1.62-0.718-1.62-3.866v-6.273c0-1.181 0.093-1.69 0.509-2.199 0.509-0.648 1.62-1.296 2.87-1.296 2.685 0 3.449 1.713 3.449 3.982v5.787c0 3.148-0.185 3.611-1.62 3.843l-0.694 0.116c-0.301 0.301-0.255 1.065 0.093 1.25 1.528-0.093 2.986-0.139 4.398-0.139 1.574 0 3.009 0.046 4.861 0.139 0.162-0.185 0.37-0.949 0-1.25l-0.949-0.116c-1.458-0.232-1.62-0.694-1.62-3.843v-6.597c0-3.333-1.62-5.718-5.208-5.718-1.991 0-3.449 0.764-5.44 1.991-0.509 0.301-0.764 0.44-0.949 0.44-0.162 0-0.417-0.255-0.671-0.648-0.602-0.81-2.014-1.782-3.843-1.782-2.893 0-4.005 1.019-6.088 2.13-0.255-0.046-0.394-0.139-0.394-0.417 0-0.347 0-1.157 0.093-1.968-0.093-0.185-0.255-0.347-0.556-0.347-1.366 0.764-3.657 1.782-5.532 2.315-0.185 0.208-0.185 0.787-0.046 0.972l0.509 0.301c1.065 0.625 1.065 1.134 1.065 3.056v6.273z"></path>
<path d="M170.069 7.219c0-1.829 0.046-4.468 0.139-6.181-0.093-0.208-0.347-0.37-0.602-0.324-1.759 0.671-3.958 1.574-5.579 2.037-0.301 0.139-0.255 0.81 0 0.972l0.602 0.394c0.926 0.556 0.972 0.856 0.972 3.704v19.213c0 1.597-0.139 3.843-0.139 4.005 0 0.139 0.255 0.301 0.44 0.301 0.116 0 0.208 0 0.301-0.023 0.255-0.301 0.556-0.694 1.065-0.694s2.5 1.157 5.671 1.157c5.579 0 10.093-3.495 10.093-9.56 0-4.722-3.148-8.426-8.148-8.426-1.69 0-3.102 0.556-4.468 1.366-0.255 0-0.347-0.185-0.347-0.764v-7.176zM170.069 18.909c0-1.458 0.093-2.014 0.463-2.268 0.347-0.255 1.25-0.556 2.106-0.556 3.009 0 5.648 2.685 5.648 7.685 0 3.611-1.574 6.296-4.421 6.296-1.227 0-2.268-0.625-2.847-1.435-0.694-0.903-0.949-2.407-0.949-4.282v-5.44z"></path>
<path d="M190.862 18.724c0-1.736 0.046-3.773 0.139-5.185-0.139-0.208-0.347-0.301-0.602-0.347-1.181 0.718-3.333 1.667-5.532 2.315-0.185 0.208-0.185 0.787-0.046 0.972l0.509 0.301c1.065 0.625 1.065 1.134 1.065 3.056v6.273c0 3.148-0.162 3.611-1.62 3.843l-0.764 0.116c-0.301 0.301-0.255 1.065 0.093 1.25 1.62-0.093 3.056-0.139 4.468-0.139 1.574 0 3.032 0.046 4.606 0.139 0.324-0.185 0.37-0.949 0.069-1.25l-0.764-0.116c-1.435-0.231-1.62-0.694-1.62-3.843v-7.384zM188.616 8.168c1.62 0 2.732-1.157 2.732-2.685s-1.111-2.685-2.732-2.685c-1.62 0-2.732 1.157-2.732 2.685s1.111 2.685 2.732 2.685z"></path>
<path d="M206.755 21.085c1.713 0 2.685-0.185 2.94-0.556 0.185-0.347 0.231-0.602 0.231-0.995 0-3.704-3.241-5.741-6.389-5.741-5.718 0-9.005 4.653-9.005 9.468 0 4.838 3.287 8.519 8.218 8.519 2.616 0 5.764-1.273 7.222-4.699-0.046-0.37-0.532-0.81-0.949-0.671-0.972 1.574-2.384 2.13-4.097 2.13-3.796 0-6.435-3.079-6.435-6.898 0-0.509 0.093-0.556 0.903-0.556h7.361zM199.44 19.372c-0.509 0-0.602-0.116-0.602-0.301 0-0.903 1.319-3.657 4.167-3.657 1.852 0 2.824 1.227 2.824 2.755 0 0.394-0.162 0.741-0.417 0.903-0.301 0.185-0.856 0.301-2.106 0.301h-3.866z"></path>
</symbol>
</defs>
</svg>
