<svg aria-hidden="true" style="position: absolute; width: 0; height: 0; overflow: hidden;" version="1.1" xmlns="http://www.w3.org/2000/svg" xmlns:xlink="http://www.w3.org/1999/xlink">
<defs>
<symbol id="icon-account" viewBox="0 0 32 32">
<title>account</title>
<path d="M25.856 23.929c-2.595 2.032-6.050 3.272-9.843 3.272-3.806 0-7.27-1.248-9.869-3.292 0.35-0.727 0.957-1.344 1.751-1.738l3.958-1.965c0.376-0.187 0.611-0.546 0.611-0.937v-1.336c-0.297-0.354-1.148-1.458-1.554-2.922-0.419-0.306-0.664-0.764-0.664-1.255v-1.615c0-0.389 0.16-0.766 0.444-1.060v-2.148c-0.025-0.222-0.123-1.545 0.928-2.635 0.911-0.946 2.39-1.425 4.396-1.425s3.485 0.48 4.396 1.426c1.050 1.091 0.953 2.412 0.928 2.635v2.148c0.284 0.294 0.444 0.671 0.444 1.060v1.615c0 0.636-0.406 1.199-1.033 1.46-0.32 0.849-0.761 1.635-1.31 2.342-0.11 0.142-0.217 0.271-0.319 0.384v1.365c0 0.407 0.249 0.773 0.648 0.955l4.238 1.928c0.837 0.381 1.48 0.998 1.851 1.739v0z"></path>
<path d="M16 32c-8.822 0-16-7.178-16-16s7.178-16 16-16c8.822 0 16 7.178 16 16s-7.178 16-16 16zM16 1.436c-8.031 0-14.564 6.533-14.564 14.564s6.534 14.564 14.564 14.564 14.564-6.533 14.564-14.564-6.533-14.564-14.564-14.564z"></path>
</symbol>
<symbol id="icon-heart" viewBox="0 0 36 32">
<title>heart</title>
<path d="M33.575 3.151c-1.787-2.046-4.256-3.151-6.983-3.151-3.809 0-6.231 2.281-7.594 4.185-0.353 0.494-0.658 0.987-0.893 1.458-0.259-0.47-0.541-0.964-0.893-1.458-1.364-1.904-3.785-4.185-7.594-4.185-2.704 0-5.196 1.105-6.983 3.151-1.693 1.928-2.633 4.514-2.633 7.289 0 3.010 1.176 5.807 3.691 8.817 2.257 2.68 5.502 5.455 9.264 8.652 1.411 1.199 2.845 2.422 4.397 3.785l0.047 0.047c0.212 0.165 0.447 0.259 0.705 0.259s0.494-0.094 0.705-0.259l0.047-0.047c1.552-1.34 2.986-2.586 4.397-3.785 3.762-3.198 7.007-5.972 9.264-8.652 2.516-3.010 3.691-5.808 3.691-8.817 0-2.774-0.941-5.361-2.633-7.289v0zM21.866 26.287c-1.199 1.035-2.445 2.093-3.762 3.221-1.317-1.129-2.563-2.21-3.762-3.221-7.359-6.254-12.226-10.416-12.226-15.847 0-2.257 0.752-4.35 2.116-5.878 1.387-1.575 3.292-2.445 5.384-2.445 2.915 0 4.796 1.787 5.855 3.292 0.964 1.34 1.458 2.704 1.622 3.221 0.141 0.447 0.541 0.729 1.011 0.729s0.87-0.306 1.011-0.729c0.165-0.517 0.658-1.881 1.622-3.221 1.058-1.505 2.939-3.292 5.855-3.292 2.093 0 3.997 0.87 5.384 2.422 1.364 1.552 2.116 3.644 2.116 5.878 0 5.455-4.867 9.616-12.226 15.871z"></path>
</symbol>
<symbol id="icon-top" viewBox="0 0 23 32">
<title>top</title>
<path d="M9.438 9.948v22.052h3.805v-22.052l6.262 9.648 3.206-2.067-11.356-17.528-11.356 17.498 3.206 2.067 6.232-9.618z"></path>
</symbol>
<symbol id="icon-box" viewBox="0 0 32 32">
<title>box</title>
<path d="M6.098 9.902l10.258 5.102c0.249 0.124 0.409 0.373 0.409 0.64v13.618c0 0.391-0.32 0.729-0.729 0.729-0.124 0-0.249-0.036-0.356-0.107l-10.258-5.102c-0.249-0.124-0.409-0.373-0.409-0.64v-13.618c0-0.391 0.32-0.729 0.729-0.729 0.124 0.018 0.249 0.053 0.356 0.107zM15.307 16.089l-8.853-4.409v12l8.853 4.409v-12zM25.618 11.68l-8.853 4.409v12l8.853-4.391v-12.018zM15.716 15.004l10.258-5.102c0.107-0.071 0.231-0.107 0.356-0.107 0.391 0 0.729 0.32 0.729 0.729v13.618c0 0.267-0.142 0.516-0.409 0.64l-10.258 5.102c-0.107 0.071-0.231 0.107-0.356 0.107-0.391 0-0.729-0.32-0.729-0.729v-13.618c0.018-0.267 0.16-0.516 0.409-0.64v0zM5.956 9.707l8.782-2.489-3.253-3.751-9.387 2.080c0 0 3.858 4.16 3.858 4.16zM16.231 8.302l-10.311 2.916c-0.249 0.071-0.533 0-0.729-0.196l-4.996-5.404c-0.089-0.089-0.142-0.213-0.178-0.338-0.089-0.391 0.16-0.764 0.551-0.853l10.987-2.453c0.249-0.071 0.533 0.018 0.729 0.231l4.267 4.889c0.089 0.089 0.142 0.196 0.178 0.302 0.107 0.391-0.107 0.8-0.498 0.907v0zM26.347 10.524l-10.311 5.12-10.311-5.12 10.311-2.916 10.311 2.916zM26.151 11.218l-10.311-2.916c-0.391-0.107-0.604-0.498-0.498-0.889 0.036-0.124 0.089-0.231 0.178-0.302l4.267-4.889c0.178-0.213 0.462-0.284 0.729-0.231l11.004 2.436c0.391 0.089 0.64 0.462 0.551 0.853-0.036 0.124-0.089 0.249-0.178 0.338l-5.031 5.404c-0.178 0.196-0.462 0.267-0.711 0.196zM17.333 7.218l8.782 2.489 3.858-4.16-9.369-2.080-3.271 3.751z"></path>
</symbol>
<symbol id="icon-card" viewBox="0 0 32 32">
<title>card</title>
<path d="M3.979 4.825h24.093c1.101 0 2.083 0.457 2.811 1.168v0c0.728 0.728 1.168 1.71 1.168 2.811v14.324c0 1.101-0.44 2.099-1.168 2.811-0.728 0.728-1.727 1.168-2.811 1.168h-24.093c-1.101 0-2.099-0.44-2.811-1.168v0c-0.711-0.711-1.168-1.71-1.168-2.811v-14.324c0-1.101 0.44-2.083 1.168-2.811v0c0.728-0.728 1.727-1.168 2.811-1.168zM1.829 11.31h28.411v-2.506c0-0.593-0.237-1.134-0.626-1.524v0c-0.389-0.389-0.931-0.626-1.524-0.626h-24.11c-0.593 0-1.134 0.237-1.524 0.626v0c-0.389 0.389-0.626 0.931-0.626 1.524 0 0 0 2.506 0 2.506zM30.239 14.798h-28.411v8.33c0 0.593 0.237 1.134 0.626 1.524v0c0.389 0.389 0.931 0.626 1.524 0.626h24.093c0.593 0 1.134-0.237 1.524-0.626s0.626-0.931 0.626-1.524v-8.33z"></path>
</symbol>
<symbol id="icon-circle" viewBox="0 0 32 32">
<title>circle</title>
<path d="M16 1.28c-8.114 0-14.72 6.606-14.72 14.72s6.606 14.72 14.72 14.72c8.114 0 14.72-6.606 14.72-14.72s-6.606-14.72-14.72-14.72zM16 3.84c6.731 0 12.16 5.429 12.16 12.16s-5.429 12.16-12.16 12.16c-6.731 0-12.16-5.429-12.16-12.16s5.429-12.16 12.16-12.16z"></path>
</symbol>
<symbol id="icon-document" viewBox="0 0 32 32">
<title>document</title>
<path d="M8.631 24.112h-4.826c-0.329 0-0.605 0.242-0.605 0.571v2.646c0 2.491 1.972 4.532 4.445 4.653v0.017h16.138v-0.017c0.156 0 0.208 0.017 0.311 0.017h0.017c2.577 0 4.653-2.093 4.653-4.67 0-8.13 0-16.259 0-24.389v-1.176h-20.082v1.176l-0.052 21.172zM27.555 27.312c0 1.92-1.557 3.477-3.477 3.477h-0.017c-1.92 0-3.494-1.557-3.494-3.477v-2.629c0-0.156-0.052-0.294-0.156-0.398s-0.259-0.173-0.398-0.156h-10.205c0.052-7.075 0.035-14.097 0.035-21.189h17.712c0.017 8.112 0 16.242 0 24.372v0zM7.87 30.789v0c-1.92 0-3.477-1.557-3.494-3.477v-2.024h15.014v2.006c0 1.245 0.502 2.422 1.366 3.304 0.069 0.069 0.138 0.104 0.208 0.19h-13.094zM17.643 0.017h2.128v2.439h-2.128v-2.439zM11.226 0h2.128v2.439h-2.128c0 0 0-2.439 0-2.439zM24.043 0h2.128v2.439h-2.128c0 0 0-2.439 0-2.439zM14.426 2.335h2.128v2.439h-2.128v-2.439zM20.843 2.335h2.128v2.439h-2.128v-2.439zM12.35 8.372h11.243v1.505h-11.243v-1.505zM12.35 13.215h11.243v1.505h-11.243v-1.505zM12.35 17.937h11.243v1.505h-11.243v-1.505z"></path>
</symbol>
<symbol id="icon-facebook" viewBox="0 0 32 32">
<title>facebook</title>
<path d="M24.025 0h-4.145c-4.659 0-7.677 3.084-7.677 7.876v3.631h-4.178c-0.365 0-0.647 0.298-0.647 0.647v5.256c0 0.365 0.298 0.647 0.647 0.647h4.178v13.281c0 0.365 0.298 0.647 0.647 0.647h5.438c0.365 0 0.647-0.298 0.647-0.647v-13.281h4.875c0.365 0 0.647-0.298 0.647-0.647v-5.256c0-0.166-0.066-0.332-0.199-0.464-0.116-0.116-0.282-0.199-0.464-0.199h-4.875v-3.067c0-1.476 0.348-2.238 2.271-2.238h2.802c0.365 0 0.647-0.298 0.647-0.647v-4.875c0.033-0.365-0.249-0.663-0.613-0.663v0z"></path>
</symbol>
<symbol id="icon-inst" viewBox="0 0 32 32">
<title>inst</title>
<path d="M30.79 1.21c-0.795-0.812-1.773-1.21-2.883-1.21h-23.797c-1.127 0-2.088 0.398-2.9 1.21s-1.21 1.773-1.21 2.9v23.797c0 1.127 0.398 2.088 1.21 2.9s1.773 1.21 2.9 1.21h23.797c1.127 0 2.088-0.398 2.9-1.21s1.21-1.773 1.21-2.9v-23.797c-0.017-1.127-0.414-2.088-1.226-2.9v0zM11.484 11.534c1.259-1.21 2.767-1.823 4.524-1.823 1.773 0 3.298 0.613 4.557 1.823s1.889 2.685 1.889 4.408c0 1.723-0.63 3.198-1.889 4.408s-2.767 1.823-4.557 1.823c-1.757 0-3.281-0.613-4.524-1.823-1.243-1.226-1.873-2.685-1.873-4.408s0.63-3.198 1.873-4.408zM28.371 27.045c0 0.365-0.133 0.663-0.381 0.911s-0.547 0.365-0.895 0.365h-22.272c-0.365 0-0.663-0.116-0.911-0.365s-0.365-0.547-0.365-0.911v-13.506h2.933c-0.282 0.878-0.414 1.79-0.414 2.734 0 2.668 0.978 4.938 2.917 6.828s4.292 2.817 7.026 2.817c1.806 0 3.48-0.431 5.005-1.293s2.734-2.038 3.629-3.513c0.895-1.475 1.326-3.099 1.326-4.839 0-0.945-0.133-1.856-0.414-2.734h2.817v13.506zM28.371 8.435c0 0.398-0.133 0.746-0.414 1.027s-0.613 0.414-1.027 0.414h-3.629c-0.398 0-0.746-0.133-1.027-0.414s-0.414-0.613-0.414-1.027v-3.43c0-0.381 0.133-0.729 0.414-1.011s0.613-0.431 1.027-0.431h3.629c0.398 0 0.746 0.149 1.027 0.431s0.414 0.63 0.414 1.011v3.43z"></path>
</symbol>
<symbol id="icon-like" viewBox="0 0 32 32">
<title>like</title>
<path d="M15.979 30.653l-2.253-2.232c-8.295-7.347-13.726-12.316-13.726-18.379 0-4.947 3.832-8.779 8.779-8.779 2.716 0 5.432 1.284 7.179 3.347 1.768-2.063 4.484-3.347 7.2-3.347 4.947 0 8.779 3.832 8.779 8.779 0 6.063-5.432 11.011-13.726 18.358l-2.232 2.253z"></path>
</symbol>
<symbol id="icon-login" viewBox="0 0 32 32">
<title>login</title>
<path d="M30.066 27.26c-3.713 2.909-8.659 4.672-14.083 4.672-5.442 0-10.404-1.78-14.118-4.706 0.496-1.044 1.369-1.917 2.498-2.481l5.664-2.806c0.53-0.274 0.873-0.787 0.873-1.335v-1.917c-0.428-0.513-1.643-2.088-2.225-4.175-0.599-0.445-0.941-1.095-0.941-1.797v-2.327c0-0.565 0.222-1.095 0.633-1.523v-3.080c-0.034-0.325-0.171-2.208 1.335-3.765 1.318-1.335 3.422-2.019 6.297-2.019s4.98 0.684 6.28 2.036c1.506 1.557 1.369 3.457 1.335 3.765v3.080c0.411 0.428 0.633 0.958 0.633 1.523v2.31c0 0.907-0.582 1.711-1.472 2.088-0.462 1.215-1.095 2.344-1.882 3.354-0.154 0.205-0.308 0.394-0.462 0.548v1.951c0 0.582 0.359 1.112 0.924 1.369l6.058 2.755c1.215 0.53 2.122 1.42 2.652 2.481v0z"></path>
</symbol>
<symbol id="icon-logo-long" viewBox="0 0 32 32">
<title>logo-long</title>
<path d="M21.68 15.432c-0.258 0-0.483 0.185-0.483 0.463 0 0.218 0.169 0.34 0.216 0.383-0.231 0.12-0.467 0.302-0.474 0.623 0.007 0.249 0.18 0.554 0.625 0.554 0.238 0 0.436-0.096 0.641-0.302 0.040 0.064 0.107 0.16 0.149 0.205 0.058 0.058 0.216 0.098 0.363 0.098 0.154 0 0.378-0.058 0.529-0.222 0.009-0.031-0.013-0.060-0.045-0.064-0.064 0.047-0.165 0.084-0.249 0.084-0.22 0-0.363-0.127-0.494-0.331-0.020-0.033-0.024-0.062-0.004-0.091 0.136-0.193 0.247-0.36 0.32-0.485 0.107-0.18 0.171-0.269 0.331-0.302l0.142-0.031c0.024-0.024 0.016-0.076-0.007-0.087-0.071 0.007-0.36 0.018-0.518 0.018h-0.171c-0.031 0.013-0.038 0.060-0.009 0.087l0.089 0.016c0.087 0.016 0.076 0.047 0.022 0.165-0.089 0.198-0.198 0.409-0.298 0.54-0.162-0.254-0.28-0.396-0.518-0.549 0.105-0.062 0.291-0.136 0.291-0.369 0-0.214-0.173-0.398-0.449-0.398v0zM21.865 16.631c0.091 0.1 0.178 0.218 0.251 0.336 0.038 0.058 0.038 0.076-0.009 0.118-0.096 0.087-0.222 0.142-0.36 0.142-0.269 0-0.485-0.185-0.485-0.443 0-0.156 0.084-0.314 0.189-0.387 0.024-0.020 0.056-0.038 0.071-0.038s0.198 0.111 0.343 0.271v0zM21.667 15.543c0.118 0 0.196 0.113 0.196 0.276 0 0.129-0.045 0.231-0.102 0.296-0.007 0.004-0.022 0.016-0.031 0.016-0.007 0-0.031-0.016-0.049-0.027-0.136-0.1-0.211-0.193-0.211-0.322-0-0.142 0.091-0.238 0.198-0.238z"></path>
<path d="M24.497 14.709c-0.18 0-0.365-0.004-0.507-0.013-0.033 0.018-0.038 0.091-0.009 0.12l0.053 0.007c0.193 0.029 0.229 0.042 0.229 0.476v1.523c0 0.434-0.036 0.447-0.229 0.472l-0.091 0.011c-0.027 0.029-0.024 0.102 0.009 0.12 0.189-0.009 0.374-0.013 0.554-0.013s0.365 0.004 0.625 0.013c0.033-0.018 0.038-0.091 0.009-0.12l-0.171-0.020c-0.193-0.016-0.229-0.029-0.229-0.463v-0.574c0-0.102 0.002-0.111 0.098-0.111h0.24c0.358 0 0.423 0.009 0.46 0.18l0.031 0.16c0.024 0.029 0.102 0.029 0.125-0.004-0.004-0.127-0.013-0.274-0.013-0.425s0.009-0.302 0.013-0.409c-0.022-0.033-0.1-0.033-0.125-0.004l-0.031 0.14c-0.038 0.171-0.102 0.18-0.46 0.18h-0.24c-0.096 0-0.098-0.009-0.098-0.111v-0.734c0-0.229 0-0.236 0.171-0.236h0.209c0.131 0 0.234 0.002 0.343 0.031 0.156 0.042 0.222 0.16 0.262 0.398 0.042 0.024 0.116 0.016 0.131-0.016-0.007-0.193-0.007-0.501-0.007-0.592-0.087 0.009-0.316 0.013-0.578 0.013l-0.774 0z"></path>
<path d="M26.584 16.215c0-0.167 0.004-0.363 0.013-0.498-0.013-0.020-0.033-0.029-0.058-0.033-0.113 0.069-0.32 0.16-0.532 0.222-0.018 0.020-0.018 0.076-0.004 0.093l0.049 0.029c0.102 0.060 0.102 0.109 0.102 0.294v0.603c0 0.302-0.016 0.347-0.156 0.369l-0.073 0.011c-0.029 0.029-0.024 0.102 0.009 0.12 0.156-0.009 0.294-0.013 0.429-0.013 0.151 0 0.291 0.004 0.443 0.013 0.031-0.018 0.036-0.091 0.007-0.12l-0.073-0.011c-0.138-0.022-0.156-0.067-0.156-0.369v-0.709zM26.369 15.201c0.156 0 0.262-0.111 0.262-0.258s-0.107-0.258-0.262-0.258-0.262 0.111-0.262 0.258 0.107 0.258 0.262 0.258z"></path>
<path d="M28.051 15.979c0.033-0.022 0.049-0.058 0.053-0.107 0-0.042-0.009-0.073-0.033-0.087h-0.405c-0.078 0-0.078-0.011-0.078-0.078v-0.245c-0.020-0.033-0.078-0.047-0.116-0.022-0.058 0.111-0.147 0.198-0.225 0.256-0.091 0.064-0.185 0.118-0.323 0.171-0.038 0.024-0.029 0.089 0.011 0.111h0.145c0.064 0 0.073 0.002 0.073 0.147v0.832c0 0.287 0.069 0.512 0.458 0.512 0.249 0 0.438-0.111 0.52-0.225 0.007-0.047-0.018-0.078-0.053-0.082-0.067 0.045-0.116 0.073-0.198 0.073-0.26 0-0.298-0.229-0.298-0.487v-0.632c0-0.131 0.004-0.138 0.078-0.138l0.389-0z"></path>
<path d="M29.259 15.741c-0.658 0-1.008 0.438-1.008 0.916 0 0.238 0.093 0.452 0.238 0.589 0.138 0.136 0.351 0.222 0.569 0.222 0.258 0 0.572-0.116 0.721-0.447-0.004-0.049-0.049-0.078-0.087-0.073-0.082 0.118-0.176 0.218-0.443 0.218-0.371 0-0.585-0.316-0.585-0.647 0-0.385 0.242-0.614 0.476-0.614 0.158 0 0.282 0.129 0.371 0.249 0.029 0.036 0.049 0.045 0.078 0.045 0.033 0 0.102-0.062 0.102-0.191 0-0.096-0.029-0.16-0.082-0.209-0.113-0.042-0.233-0.058-0.351-0.058z"></path>
<path d="M30.589 15.11c0-0.176 0.004-0.429 0.013-0.594-0.009-0.020-0.033-0.036-0.058-0.031-0.169 0.064-0.378 0.151-0.536 0.196-0.029 0.013-0.024 0.078 0 0.093l0.056 0.038c0.091 0.053 0.096 0.082 0.096 0.356v1.757c0 0.302-0.018 0.347-0.156 0.369l-0.091 0.011c-0.029 0.029-0.024 0.102 0.009 0.12 0.171-0.009 0.311-0.013 0.443-0.013 0.151 0 0.291 0.004 0.434 0.013 0.033-0.018 0.038-0.091 0.009-0.12l-0.062-0.009c-0.14-0.024-0.156-0.069-0.156-0.371v-0.549c0-0.16 0.004-0.22 0.049-0.269 0.049-0.053 0.145-0.12 0.278-0.12 0.242 0 0.329 0.165 0.329 0.36v0.578c0 0.302-0.018 0.347-0.156 0.371l-0.062 0.009c-0.029 0.029-0.024 0.102 0.009 0.12 0.142-0.009 0.282-0.013 0.418-0.013 0.151 0 0.289 0.004 0.463 0.013 0.040-0.018 0.045-0.091 0.007-0.12l-0.093-0.011c-0.14-0.022-0.156-0.067-0.156-0.369v-0.609c0-0.349-0.171-0.574-0.525-0.574-0.205 0-0.38 0.089-0.523 0.196-0.029 0-0.038-0.020-0.038-0.069l-0-0.759z"></path>
<path d="M1.569 16.455c0.113 0 0.127 0 0.167 0.111l0.193 0.556c0.053 0.176 0.040 0.2-0.107 0.218l-0.091 0.011c-0.024 0.024-0.020 0.098 0.013 0.12 0.142-0.004 0.323-0.013 0.5-0.013 0.211 0 0.363 0.004 0.532 0.013 0.029-0.022 0.029-0.091-0.004-0.12l-0.062-0.011c-0.207-0.038-0.229-0.067-0.322-0.34l-0.589-1.717c-0.067-0.182-0.12-0.376-0.185-0.56-0.016-0.020-0.038-0.033-0.069-0.033-0.009 0-0.145 0.169-0.287 0.198 0.011 0.069-0.024 0.167-0.078 0.298l-0.56 1.459c-0.087 0.22-0.151 0.392-0.202 0.498-0.060 0.136-0.105 0.173-0.225 0.189l-0.122 0.020c-0.029 0.038-0.024 0.098 0.004 0.12 0.142-0.009 0.269-0.013 0.405-0.013 0.169 0.004 0.302 0.004 0.434 0.013 0.033-0.018 0.038-0.091 0.009-0.12l-0.118-0.020c-0.154-0.020-0.169-0.033-0.087-0.274l0.167-0.491c0.038-0.111 0.033-0.111 0.14-0.111h0.545zM1.088 16.271c-0.098 0-0.109 0-0.064-0.118l0.171-0.48c0.073-0.191 0.107-0.294 0.122-0.322h0.009c0.020 0.029 0.045 0.107 0.116 0.322l0.171 0.491c0.033 0.098 0.016 0.107-0.098 0.107h-0.427z"></path>
<path d="M3.374 15.156c0-0.176 0.004-0.429 0.013-0.594-0.009-0.020-0.033-0.036-0.058-0.031-0.169 0.064-0.38 0.151-0.536 0.196-0.029 0.013-0.024 0.078 0 0.093l0.058 0.038c0.089 0.053 0.093 0.082 0.093 0.356v1.846c0 0.154-0.013 0.369-0.013 0.385 0 0.013 0.024 0.029 0.042 0.029 0.011 0 0.020 0 0.029-0.002 0.024-0.029 0.053-0.067 0.102-0.067s0.24 0.111 0.545 0.111c0.536 0 0.97-0.336 0.97-0.919 0-0.454-0.302-0.81-0.783-0.81-0.162 0-0.298 0.053-0.429 0.131-0.024 0-0.033-0.018-0.033-0.073v-0.69h0zM3.374 16.279c0-0.14 0.009-0.193 0.045-0.218 0.033-0.024 0.12-0.053 0.202-0.053 0.289 0 0.543 0.258 0.543 0.738 0 0.347-0.151 0.605-0.425 0.605-0.118 0-0.218-0.060-0.274-0.138-0.067-0.087-0.091-0.231-0.091-0.411-0 0-0-0.523-0-0.523z"></path>
<path d="M6.047 16.489c0.165 0 0.258-0.018 0.282-0.053 0.018-0.033 0.022-0.058 0.022-0.096 0-0.356-0.311-0.552-0.614-0.552-0.549 0-0.865 0.447-0.865 0.91 0 0.465 0.316 0.819 0.79 0.819 0.251 0 0.554-0.122 0.694-0.452-0.004-0.036-0.051-0.078-0.091-0.064-0.093 0.151-0.229 0.205-0.394 0.205-0.365 0-0.618-0.296-0.618-0.663 0-0.049 0.009-0.053 0.087-0.053 0 0 0.707 0 0.707 0zM5.344 16.324c-0.049 0-0.058-0.011-0.058-0.029 0-0.087 0.127-0.351 0.4-0.351 0.178 0 0.271 0.118 0.271 0.265 0 0.038-0.016 0.071-0.040 0.087-0.029 0.018-0.082 0.029-0.202 0.029h-0.371z"></path>
<path d="M6.703 16.971c0 0.302-0.018 0.347-0.156 0.369l-0.073 0.011c-0.029 0.029-0.024 0.102 0.007 0.12 0.156-0.009 0.291-0.013 0.427-0.013 0.151 0 0.291 0.004 0.536 0.013 0.033-0.018 0.038-0.091 0.009-0.12l-0.16-0.016c-0.142-0.018-0.16-0.062-0.16-0.365v-0.561c0-0.202 0.024-0.296 0.12-0.296 0.024 0 0.093 0.009 0.196 0.078 0.033 0.020 0.069 0.033 0.111 0.033 0.109 0 0.229-0.078 0.229-0.238 0-0.107-0.082-0.2-0.227-0.2-0.138 0-0.274 0.122-0.4 0.214-0.024 0-0.040-0.022-0.040-0.049 0-0.038 0.002-0.107 0.007-0.185-0.007-0.024-0.031-0.038-0.056-0.038-0.125 0.073-0.34 0.165-0.516 0.222-0.018 0.020-0.018 0.076-0.004 0.093l0.049 0.029c0.102 0.060 0.102 0.109 0.102 0.294l-0 0.603z"></path>
<path d="M8.82 15.788c-0.658 0-1.008 0.438-1.008 0.916 0 0.238 0.093 0.452 0.238 0.589 0.138 0.136 0.351 0.222 0.569 0.222 0.258 0 0.572-0.116 0.721-0.447-0.004-0.049-0.049-0.078-0.087-0.073-0.082 0.118-0.176 0.218-0.443 0.218-0.371 0-0.585-0.316-0.585-0.647 0-0.385 0.242-0.614 0.476-0.614 0.158 0 0.282 0.129 0.371 0.249 0.029 0.036 0.049 0.045 0.078 0.045 0.033 0 0.102-0.062 0.102-0.191 0-0.096-0.029-0.16-0.082-0.209-0.113-0.042-0.233-0.058-0.351-0.058z"></path>
<path d="M9.688 16.971c0 0.302-0.018 0.347-0.156 0.369l-0.073 0.011c-0.029 0.029-0.024 0.102 0.007 0.12 0.156-0.009 0.291-0.013 0.427-0.013 0.151 0 0.291 0.004 0.536 0.013 0.033-0.018 0.038-0.091 0.009-0.12l-0.16-0.016c-0.142-0.018-0.16-0.062-0.16-0.365v-0.561c0-0.202 0.024-0.296 0.12-0.296 0.024 0 0.093 0.009 0.196 0.078 0.033 0.020 0.069 0.033 0.111 0.033 0.109 0 0.229-0.078 0.229-0.238 0-0.107-0.082-0.2-0.227-0.2-0.138 0-0.274 0.122-0.4 0.214-0.024 0-0.040-0.022-0.040-0.049 0-0.038 0.002-0.107 0.007-0.185-0.007-0.024-0.031-0.038-0.056-0.038-0.125 0.073-0.34 0.165-0.516 0.222-0.018 0.020-0.018 0.076-0.004 0.093l0.049 0.029c0.102 0.060 0.102 0.109 0.102 0.294l-0 0.603z"></path>
<path d="M11.694 15.788c-0.478 0-0.896 0.345-0.896 0.892 0 0.536 0.394 0.836 0.865 0.836 0.487 0 0.896-0.302 0.896-0.885-0-0.532-0.403-0.843-0.865-0.843zM11.28 16.62c0-0.456 0.165-0.667 0.374-0.667 0.302 0 0.42 0.405 0.42 0.747 0 0.316-0.080 0.652-0.363 0.652-0.296-0-0.431-0.36-0.431-0.732z"></path>
<path d="M12.882 16.971c0 0.302-0.016 0.347-0.156 0.369l-0.073 0.011c-0.029 0.029-0.024 0.102 0.009 0.12 0.156-0.009 0.289-0.013 0.425-0.013 0.151 0 0.291 0.004 0.434 0.013 0.033-0.018 0.038-0.091 0.009-0.12l-0.062-0.009c-0.138-0.024-0.156-0.069-0.156-0.371v-0.549c0-0.16 0.004-0.196 0.053-0.262 0.045-0.060 0.151-0.127 0.291-0.127 0.238 0 0.311 0.165 0.311 0.383v0.556c0 0.302-0.016 0.347-0.156 0.371l-0.053 0.009c-0.029 0.029-0.024 0.102 0.009 0.12 0.133-0.009 0.274-0.013 0.409-0.013 0.151 0 0.287 0.004 0.429 0.013 0.033-0.018 0.038-0.091 0.009-0.12l-0.062-0.009c-0.138-0.024-0.156-0.069-0.156-0.371v-0.603c0-0.113 0.009-0.162 0.049-0.211 0.049-0.062 0.156-0.125 0.276-0.125 0.258 0 0.331 0.165 0.331 0.383v0.556c0 0.302-0.018 0.347-0.156 0.369l-0.067 0.011c-0.029 0.029-0.024 0.102 0.009 0.12 0.147-0.009 0.287-0.013 0.423-0.013 0.151 0 0.289 0.004 0.467 0.013 0.016-0.018 0.036-0.091 0-0.12l-0.091-0.011c-0.14-0.022-0.156-0.067-0.156-0.369v-0.634c0-0.32-0.156-0.549-0.501-0.549-0.191 0-0.331 0.073-0.523 0.191-0.049 0.029-0.073 0.042-0.091 0.042-0.016 0-0.040-0.024-0.064-0.062-0.058-0.078-0.193-0.171-0.369-0.171-0.278 0-0.385 0.098-0.585 0.205-0.024-0.004-0.038-0.013-0.038-0.040 0-0.033 0-0.111 0.009-0.189-0.009-0.018-0.024-0.033-0.053-0.033-0.131 0.073-0.351 0.171-0.532 0.222-0.018 0.020-0.018 0.076-0.004 0.093l0.049 0.029c0.102 0.060 0.102 0.109 0.102 0.294v0.603z"></path>
<path d="M16.341 15.156c0-0.176 0.004-0.429 0.013-0.594-0.009-0.020-0.033-0.036-0.058-0.031-0.169 0.064-0.38 0.151-0.536 0.196-0.029 0.013-0.024 0.078 0 0.093l0.058 0.038c0.089 0.053 0.093 0.082 0.093 0.356v1.846c0 0.154-0.013 0.369-0.013 0.385 0 0.013 0.024 0.029 0.042 0.029 0.011 0 0.020 0 0.029-0.002 0.024-0.029 0.053-0.067 0.102-0.067s0.24 0.111 0.545 0.111c0.536 0 0.97-0.336 0.97-0.919 0-0.454-0.302-0.81-0.783-0.81-0.162 0-0.298 0.053-0.429 0.131-0.024 0-0.033-0.018-0.033-0.073l0-0.69zM16.341 16.279c0-0.14 0.009-0.193 0.045-0.218 0.033-0.024 0.12-0.053 0.202-0.053 0.289 0 0.543 0.258 0.543 0.738 0 0.347-0.151 0.605-0.425 0.605-0.118 0-0.218-0.060-0.274-0.138-0.067-0.087-0.091-0.231-0.091-0.411l-0-0.523z"></path>
<path d="M18.339 16.262c0-0.167 0.004-0.363 0.013-0.498-0.013-0.020-0.033-0.029-0.058-0.033-0.113 0.069-0.32 0.16-0.532 0.222-0.018 0.020-0.018 0.076-0.004 0.093l0.049 0.029c0.102 0.060 0.102 0.109 0.102 0.294v0.603c0 0.302-0.016 0.347-0.156 0.369l-0.073 0.011c-0.029 0.029-0.024 0.102 0.009 0.12 0.156-0.009 0.294-0.013 0.429-0.013 0.151 0 0.291 0.004 0.443 0.013 0.031-0.018 0.036-0.091 0.007-0.12l-0.073-0.011c-0.138-0.022-0.156-0.067-0.156-0.369v-0.709zM18.123 15.248c0.156 0 0.262-0.111 0.262-0.258s-0.107-0.258-0.262-0.258-0.262 0.111-0.262 0.258c0 0.147 0.107 0.258 0.262 0.258z"></path>
<path d="M19.866 16.489c0.165 0 0.258-0.018 0.282-0.053 0.018-0.033 0.022-0.058 0.022-0.096 0-0.356-0.311-0.552-0.614-0.552-0.549 0-0.865 0.447-0.865 0.91 0 0.465 0.316 0.819 0.79 0.819 0.251 0 0.554-0.122 0.694-0.452-0.004-0.036-0.051-0.078-0.091-0.064-0.093 0.151-0.229 0.205-0.394 0.205-0.365 0-0.618-0.296-0.618-0.663 0-0.049 0.009-0.053 0.087-0.053 0 0 0.707 0 0.707 0zM19.163 16.324c-0.049 0-0.058-0.011-0.058-0.029 0-0.087 0.127-0.351 0.4-0.351 0.178 0 0.271 0.118 0.271 0.265 0 0.038-0.016 0.071-0.040 0.087-0.029 0.018-0.082 0.029-0.202 0.029h-0.371z"></path>
</symbol>
<symbol id="icon-logo" viewBox="0 0 32 32">
<title>logo</title>
<path d="M21.68 15.432c-0.258 0-0.483 0.185-0.483 0.463 0 0.218 0.169 0.34 0.216 0.383-0.231 0.12-0.467 0.302-0.474 0.623 0.007 0.249 0.18 0.554 0.625 0.554 0.238 0 0.436-0.096 0.641-0.302 0.040 0.064 0.107 0.16 0.149 0.205 0.058 0.058 0.216 0.098 0.363 0.098 0.153 0 0.378-0.058 0.529-0.222 0.009-0.031-0.013-0.060-0.044-0.064-0.064 0.047-0.165 0.085-0.249 0.085-0.22 0-0.363-0.127-0.494-0.331-0.020-0.033-0.024-0.062-0.004-0.091 0.136-0.194 0.247-0.36 0.32-0.485 0.107-0.18 0.171-0.269 0.331-0.302l0.142-0.031c0.024-0.024 0.016-0.076-0.007-0.087-0.071 0.007-0.36 0.018-0.518 0.018h-0.171c-0.031 0.013-0.038 0.060-0.009 0.087l0.089 0.016c0.087 0.016 0.076 0.047 0.022 0.165-0.089 0.198-0.198 0.409-0.298 0.54-0.162-0.254-0.28-0.396-0.518-0.549 0.105-0.062 0.291-0.136 0.291-0.369 0-0.214-0.174-0.398-0.449-0.398zM21.865 16.631c0.091 0.1 0.178 0.218 0.251 0.336 0.038 0.058 0.038 0.076-0.009 0.118-0.096 0.087-0.222 0.142-0.36 0.142-0.269 0-0.485-0.185-0.485-0.443 0-0.156 0.085-0.314 0.189-0.387 0.024-0.020 0.056-0.038 0.071-0.038s0.198 0.111 0.343 0.271zM21.667 15.543c0.118 0 0.196 0.113 0.196 0.276 0 0.129-0.044 0.231-0.102 0.296-0.007 0.004-0.022 0.016-0.031 0.016-0.007 0-0.031-0.016-0.049-0.027-0.136-0.1-0.211-0.194-0.211-0.322 0-0.142 0.091-0.238 0.198-0.238z"></path>
<path d="M24.497 14.709c-0.18 0-0.365-0.004-0.507-0.013-0.033 0.018-0.038 0.091-0.009 0.12l0.053 0.007c0.194 0.029 0.229 0.042 0.229 0.476v1.524c0 0.434-0.036 0.447-0.229 0.472l-0.091 0.011c-0.027 0.029-0.024 0.102 0.009 0.12 0.189-0.009 0.374-0.013 0.554-0.013s0.365 0.004 0.625 0.013c0.033-0.018 0.038-0.091 0.009-0.12l-0.171-0.020c-0.194-0.016-0.229-0.029-0.229-0.463v-0.574c0-0.102 0.002-0.111 0.098-0.111h0.24c0.358 0 0.423 0.009 0.46 0.18l0.031 0.16c0.024 0.029 0.102 0.029 0.125-0.004-0.004-0.127-0.013-0.274-0.013-0.425s0.009-0.303 0.013-0.409c-0.022-0.033-0.1-0.033-0.125-0.004l-0.031 0.14c-0.038 0.171-0.102 0.18-0.46 0.18h-0.24c-0.096 0-0.098-0.009-0.098-0.111v-0.734c0-0.229 0-0.236 0.171-0.236h0.209c0.131 0 0.234 0.002 0.343 0.031 0.156 0.042 0.222 0.16 0.262 0.398 0.042 0.024 0.116 0.016 0.131-0.016-0.007-0.194-0.007-0.5-0.007-0.592-0.087 0.009-0.316 0.013-0.578 0.013h-0.774z"></path>
<path d="M26.584 16.215c0-0.167 0.004-0.363 0.013-0.498-0.013-0.020-0.033-0.029-0.058-0.033-0.113 0.069-0.32 0.16-0.532 0.222-0.018 0.020-0.018 0.076-0.004 0.093l0.049 0.029c0.102 0.060 0.102 0.109 0.102 0.294v0.603c0 0.302-0.016 0.347-0.156 0.369l-0.073 0.011c-0.029 0.029-0.024 0.102 0.009 0.12 0.156-0.009 0.294-0.013 0.429-0.013 0.151 0 0.291 0.004 0.443 0.013 0.031-0.018 0.036-0.091 0.007-0.12l-0.073-0.011c-0.138-0.022-0.156-0.067-0.156-0.369v-0.71zM26.369 15.201c0.156 0 0.262-0.111 0.262-0.258s-0.107-0.258-0.262-0.258c-0.156 0-0.262 0.111-0.262 0.258s0.107 0.258 0.262 0.258z"></path>
<path d="M28.051 15.979c0.033-0.022 0.049-0.058 0.053-0.107 0-0.042-0.009-0.073-0.033-0.087h-0.405c-0.078 0-0.078-0.011-0.078-0.078v-0.245c-0.020-0.033-0.078-0.047-0.116-0.022-0.058 0.111-0.147 0.198-0.225 0.256-0.091 0.065-0.185 0.118-0.323 0.171-0.038 0.024-0.029 0.089 0.011 0.111h0.145c0.064 0 0.073 0.002 0.073 0.147v0.832c0 0.287 0.069 0.512 0.458 0.512 0.249 0 0.438-0.111 0.52-0.225 0.007-0.047-0.018-0.078-0.053-0.082-0.067 0.044-0.116 0.073-0.198 0.073-0.26 0-0.298-0.229-0.298-0.487v-0.632c0-0.131 0.004-0.138 0.078-0.138h0.389z"></path>
<path d="M29.259 15.741c-0.658 0-1.008 0.438-1.008 0.916 0 0.238 0.093 0.451 0.238 0.589 0.138 0.136 0.351 0.222 0.569 0.222 0.258 0 0.572-0.116 0.721-0.447-0.004-0.049-0.049-0.078-0.087-0.073-0.082 0.118-0.176 0.218-0.443 0.218-0.371 0-0.585-0.316-0.585-0.647 0-0.385 0.242-0.614 0.476-0.614 0.158 0 0.282 0.129 0.371 0.249 0.029 0.036 0.049 0.044 0.078 0.044 0.033 0 0.102-0.062 0.102-0.191 0-0.096-0.029-0.16-0.082-0.209-0.113-0.042-0.234-0.058-0.351-0.058z"></path>
<path d="M30.589 15.11c0-0.176 0.004-0.429 0.013-0.594-0.009-0.020-0.033-0.036-0.058-0.031-0.169 0.065-0.378 0.151-0.536 0.196-0.029 0.013-0.024 0.078 0 0.093l0.056 0.038c0.091 0.053 0.096 0.082 0.096 0.356v1.757c0 0.302-0.018 0.347-0.156 0.369l-0.091 0.011c-0.029 0.029-0.024 0.102 0.009 0.12 0.171-0.009 0.311-0.013 0.443-0.013 0.151 0 0.291 0.004 0.434 0.013 0.033-0.018 0.038-0.091 0.009-0.12l-0.062-0.009c-0.14-0.024-0.156-0.069-0.156-0.371v-0.549c0-0.16 0.004-0.22 0.049-0.269 0.049-0.053 0.145-0.12 0.278-0.12 0.242 0 0.329 0.165 0.329 0.36v0.578c0 0.302-0.018 0.347-0.156 0.371l-0.062 0.009c-0.029 0.029-0.024 0.102 0.009 0.12 0.142-0.009 0.282-0.013 0.418-0.013 0.151 0 0.289 0.004 0.463 0.013 0.040-0.018 0.044-0.091 0.007-0.12l-0.093-0.011c-0.14-0.022-0.156-0.067-0.156-0.369v-0.609c0-0.349-0.171-0.574-0.525-0.574-0.205 0-0.38 0.089-0.523 0.196-0.029 0-0.038-0.020-0.038-0.069v-0.758z"></path>
<path d="M1.569 16.455c0.113 0 0.127 0 0.167 0.111l0.194 0.556c0.053 0.176 0.040 0.2-0.107 0.218l-0.091 0.011c-0.024 0.024-0.020 0.098 0.013 0.12 0.142-0.004 0.323-0.013 0.5-0.013 0.211 0 0.363 0.004 0.532 0.013 0.029-0.022 0.029-0.091-0.004-0.12l-0.062-0.011c-0.207-0.038-0.229-0.067-0.322-0.34l-0.589-1.717c-0.067-0.182-0.12-0.376-0.185-0.56-0.016-0.020-0.038-0.033-0.069-0.033-0.009 0-0.145 0.169-0.287 0.198 0.011 0.069-0.024 0.167-0.078 0.298l-0.56 1.459c-0.087 0.22-0.151 0.391-0.202 0.498-0.060 0.136-0.105 0.174-0.225 0.189l-0.122 0.020c-0.029 0.038-0.024 0.098 0.004 0.12 0.142-0.009 0.269-0.013 0.405-0.013 0.169 0.004 0.302 0.004 0.434 0.013 0.033-0.018 0.038-0.091 0.009-0.12l-0.118-0.020c-0.153-0.020-0.169-0.033-0.087-0.274l0.167-0.492c0.038-0.111 0.033-0.111 0.14-0.111h0.545zM1.088 16.271c-0.098 0-0.109 0-0.065-0.118l0.171-0.48c0.073-0.191 0.107-0.294 0.122-0.322h0.009c0.020 0.029 0.044 0.107 0.116 0.322l0.171 0.492c0.033 0.098 0.016 0.107-0.098 0.107h-0.427z"></path>
<path d="M3.374 15.156c0-0.176 0.004-0.429 0.013-0.594-0.009-0.020-0.033-0.036-0.058-0.031-0.169 0.065-0.38 0.151-0.536 0.196-0.029 0.013-0.024 0.078 0 0.093l0.058 0.038c0.089 0.053 0.093 0.082 0.093 0.356v1.846c0 0.153-0.013 0.369-0.013 0.385 0 0.013 0.024 0.029 0.042 0.029 0.011 0 0.020 0 0.029-0.002 0.024-0.029 0.053-0.067 0.102-0.067s0.24 0.111 0.545 0.111c0.536 0 0.97-0.336 0.97-0.919 0-0.454-0.303-0.81-0.783-0.81-0.162 0-0.298 0.053-0.429 0.131-0.024 0-0.033-0.018-0.033-0.073v-0.69zM3.374 16.279c0-0.14 0.009-0.194 0.044-0.218 0.033-0.024 0.12-0.053 0.202-0.053 0.289 0 0.543 0.258 0.543 0.738 0 0.347-0.151 0.605-0.425 0.605-0.118 0-0.218-0.060-0.274-0.138-0.067-0.087-0.091-0.231-0.091-0.411v-0.523z"></path>
<path d="M6.047 16.489c0.165 0 0.258-0.018 0.282-0.053 0.018-0.033 0.022-0.058 0.022-0.096 0-0.356-0.311-0.552-0.614-0.552-0.549 0-0.865 0.447-0.865 0.91 0 0.465 0.316 0.819 0.79 0.819 0.251 0 0.554-0.122 0.694-0.451-0.004-0.036-0.051-0.078-0.091-0.064-0.093 0.151-0.229 0.205-0.394 0.205-0.365 0-0.618-0.296-0.618-0.663 0-0.049 0.009-0.053 0.087-0.053h0.707zM5.344 16.324c-0.049 0-0.058-0.011-0.058-0.029 0-0.087 0.127-0.351 0.4-0.351 0.178 0 0.271 0.118 0.271 0.265 0 0.038-0.016 0.071-0.040 0.087-0.029 0.018-0.082 0.029-0.202 0.029h-0.371z"></path>
<path d="M6.703 16.971c0 0.302-0.018 0.347-0.156 0.369l-0.073 0.011c-0.029 0.029-0.024 0.102 0.007 0.12 0.156-0.009 0.291-0.013 0.427-0.013 0.151 0 0.291 0.004 0.536 0.013 0.033-0.018 0.038-0.091 0.009-0.12l-0.16-0.016c-0.142-0.018-0.16-0.062-0.16-0.365v-0.561c0-0.202 0.024-0.296 0.12-0.296 0.024 0 0.093 0.009 0.196 0.078 0.033 0.020 0.069 0.033 0.111 0.033 0.109 0 0.229-0.078 0.229-0.238 0-0.107-0.082-0.2-0.227-0.2-0.138 0-0.274 0.122-0.4 0.214-0.024 0-0.040-0.022-0.040-0.049 0-0.038 0.002-0.107 0.007-0.185-0.007-0.024-0.031-0.038-0.056-0.038-0.125 0.073-0.34 0.165-0.516 0.222-0.018 0.020-0.018 0.076-0.004 0.093l0.049 0.029c0.102 0.060 0.102 0.109 0.102 0.294v0.603z"></path>
<path d="M8.82 15.788c-0.658 0-1.008 0.438-1.008 0.916 0 0.238 0.093 0.451 0.238 0.589 0.138 0.136 0.351 0.222 0.569 0.222 0.258 0 0.572-0.116 0.721-0.447-0.004-0.049-0.049-0.078-0.087-0.073-0.082 0.118-0.176 0.218-0.443 0.218-0.371 0-0.585-0.316-0.585-0.647 0-0.385 0.242-0.614 0.476-0.614 0.158 0 0.282 0.129 0.371 0.249 0.029 0.036 0.049 0.044 0.078 0.044 0.033 0 0.102-0.062 0.102-0.191 0-0.096-0.029-0.16-0.082-0.209-0.113-0.042-0.234-0.058-0.351-0.058z"></path>
<path d="M9.688 16.971c0 0.302-0.018 0.347-0.156 0.369l-0.073 0.011c-0.029 0.029-0.024 0.102 0.007 0.12 0.156-0.009 0.291-0.013 0.427-0.013 0.151 0 0.291 0.004 0.536 0.013 0.033-0.018 0.038-0.091 0.009-0.12l-0.16-0.016c-0.142-0.018-0.16-0.062-0.16-0.365v-0.561c0-0.202 0.024-0.296 0.12-0.296 0.024 0 0.093 0.009 0.196 0.078 0.033 0.020 0.069 0.033 0.111 0.033 0.109 0 0.229-0.078 0.229-0.238 0-0.107-0.082-0.2-0.227-0.2-0.138 0-0.274 0.122-0.4 0.214-0.024 0-0.040-0.022-0.040-0.049 0-0.038 0.002-0.107 0.007-0.185-0.007-0.024-0.031-0.038-0.056-0.038-0.125 0.073-0.34 0.165-0.516 0.222-0.018 0.020-0.018 0.076-0.004 0.093l0.049 0.029c0.102 0.060 0.102 0.109 0.102 0.294v0.603z"></path>
<path d="M11.694 15.788c-0.478 0-0.896 0.345-0.896 0.892 0 0.536 0.394 0.836 0.865 0.836 0.487 0 0.896-0.302 0.896-0.885 0-0.532-0.403-0.843-0.865-0.843zM11.28 16.62c0-0.456 0.165-0.667 0.374-0.667 0.303 0 0.42 0.405 0.42 0.747 0 0.316-0.080 0.652-0.363 0.652-0.296 0-0.431-0.36-0.431-0.732z"></path>
<path d="M12.882 16.971c0 0.302-0.016 0.347-0.156 0.369l-0.073 0.011c-0.029 0.029-0.024 0.102 0.009 0.12 0.156-0.009 0.289-0.013 0.425-0.013 0.151 0 0.291 0.004 0.434 0.013 0.033-0.018 0.038-0.091 0.009-0.12l-0.062-0.009c-0.138-0.024-0.156-0.069-0.156-0.371v-0.549c0-0.16 0.004-0.196 0.053-0.262 0.044-0.060 0.151-0.127 0.291-0.127 0.238 0 0.311 0.165 0.311 0.383v0.556c0 0.302-0.016 0.347-0.156 0.371l-0.053 0.009c-0.029 0.029-0.024 0.102 0.009 0.12 0.133-0.009 0.274-0.013 0.409-0.013 0.151 0 0.287 0.004 0.429 0.013 0.033-0.018 0.038-0.091 0.009-0.12l-0.062-0.009c-0.138-0.024-0.156-0.069-0.156-0.371v-0.603c0-0.113 0.009-0.162 0.049-0.211 0.049-0.062 0.156-0.125 0.276-0.125 0.258 0 0.331 0.165 0.331 0.383v0.556c0 0.302-0.018 0.347-0.156 0.369l-0.067 0.011c-0.029 0.029-0.024 0.102 0.009 0.12 0.147-0.009 0.287-0.013 0.423-0.013 0.151 0 0.289 0.004 0.467 0.013 0.016-0.018 0.036-0.091 0-0.12l-0.091-0.011c-0.14-0.022-0.156-0.067-0.156-0.369v-0.634c0-0.32-0.156-0.549-0.5-0.549-0.191 0-0.331 0.073-0.523 0.191-0.049 0.029-0.073 0.042-0.091 0.042-0.016 0-0.040-0.024-0.065-0.062-0.058-0.078-0.194-0.171-0.369-0.171-0.278 0-0.385 0.098-0.585 0.205-0.024-0.004-0.038-0.013-0.038-0.040 0-0.033 0-0.111 0.009-0.189-0.009-0.018-0.024-0.033-0.053-0.033-0.131 0.073-0.351 0.171-0.532 0.222-0.018 0.020-0.018 0.076-0.004 0.093l0.049 0.029c0.102 0.060 0.102 0.109 0.102 0.294v0.603z"></path>
<path d="M16.341 15.156c0-0.176 0.004-0.429 0.013-0.594-0.009-0.020-0.033-0.036-0.058-0.031-0.169 0.065-0.38 0.151-0.536 0.196-0.029 0.013-0.024 0.078 0 0.093l0.058 0.038c0.089 0.053 0.093 0.082 0.093 0.356v1.846c0 0.153-0.013 0.369-0.013 0.385 0 0.013 0.024 0.029 0.042 0.029 0.011 0 0.020 0 0.029-0.002 0.024-0.029 0.053-0.067 0.102-0.067s0.24 0.111 0.545 0.111c0.536 0 0.97-0.336 0.97-0.919 0-0.454-0.302-0.81-0.783-0.81-0.162 0-0.298 0.053-0.429 0.131-0.024 0-0.033-0.018-0.033-0.073v-0.69zM16.341 16.279c0-0.14 0.009-0.194 0.044-0.218 0.033-0.024 0.12-0.053 0.202-0.053 0.289 0 0.543 0.258 0.543 0.738 0 0.347-0.151 0.605-0.425 0.605-0.118 0-0.218-0.060-0.274-0.138-0.067-0.087-0.091-0.231-0.091-0.411v-0.523z"></path>
<path d="M18.339 16.262c0-0.167 0.004-0.363 0.013-0.498-0.013-0.020-0.033-0.029-0.058-0.033-0.113 0.069-0.32 0.16-0.532 0.222-0.018 0.020-0.018 0.076-0.004 0.093l0.049 0.029c0.102 0.060 0.102 0.109 0.102 0.294v0.603c0 0.302-0.016 0.347-0.156 0.369l-0.073 0.011c-0.029 0.029-0.024 0.102 0.009 0.12 0.156-0.009 0.294-0.013 0.429-0.013 0.151 0 0.291 0.004 0.443 0.013 0.031-0.018 0.036-0.091 0.007-0.12l-0.073-0.011c-0.138-0.022-0.156-0.067-0.156-0.369v-0.71zM18.123 15.247c0.156 0 0.262-0.111 0.262-0.258s-0.107-0.258-0.262-0.258c-0.156 0-0.262 0.111-0.262 0.258s0.107 0.258 0.262 0.258z"></path>
<path d="M19.866 16.489c0.165 0 0.258-0.018 0.282-0.053 0.018-0.033 0.022-0.058 0.022-0.096 0-0.356-0.311-0.552-0.614-0.552-0.549 0-0.865 0.447-0.865 0.91 0 0.465 0.316 0.819 0.79 0.819 0.251 0 0.554-0.122 0.694-0.451-0.004-0.036-0.051-0.078-0.091-0.064-0.093 0.151-0.229 0.205-0.394 0.205-0.365 0-0.618-0.296-0.618-0.663 0-0.049 0.009-0.053 0.087-0.053h0.707zM19.163 16.324c-0.049 0-0.058-0.011-0.058-0.029 0-0.087 0.127-0.351 0.4-0.351 0.178 0 0.271 0.118 0.271 0.265 0 0.038-0.016 0.071-0.040 0.087-0.029 0.018-0.082 0.029-0.202 0.029h-0.371z"></path>
</symbol>
<symbol id="icon-phone" viewBox="0 0 32 32">
<title>phone</title>
<path d="M31.319 25.294c-0.085-0.272-0.63-0.681-1.651-1.243-0.272-0.17-0.664-0.409-1.174-0.715s-0.97-0.579-1.379-0.834c-0.409-0.255-0.8-0.494-1.157-0.732-0.051-0.051-0.238-0.187-0.545-0.409s-0.562-0.392-0.766-0.511c-0.204-0.119-0.426-0.17-0.63-0.187-0.289-0.017-0.681 0.187-1.14 0.596s-0.885 0.851-1.277 1.328c-0.392 0.477-0.8 0.919-1.243 1.328-0.426 0.409-0.783 0.613-1.055 0.596-0.136 0-0.306-0.051-0.494-0.136-0.204-0.085-0.34-0.153-0.443-0.204s-0.272-0.17-0.528-0.34c-0.255-0.17-0.392-0.255-0.409-0.272-1.992-1.209-3.677-2.57-5.072-4.085s-2.621-3.302-3.66-5.396c-0.017-0.034-0.085-0.17-0.238-0.426s-0.238-0.443-0.289-0.545c-0.051-0.102-0.102-0.255-0.17-0.46s-0.102-0.374-0.085-0.511c0.017-0.272 0.238-0.596 0.681-1.004 0.443-0.392 0.919-0.766 1.43-1.123s0.987-0.749 1.43-1.174c0.443-0.426 0.664-0.783 0.681-1.089 0-0.204-0.034-0.426-0.136-0.647s-0.238-0.494-0.443-0.817c-0.204-0.323-0.323-0.511-0.374-0.579-0.204-0.374-0.426-0.783-0.647-1.226-0.221-0.426-0.46-0.919-0.715-1.447s-0.46-0.936-0.613-1.226c-0.477-1.055-0.851-1.634-1.106-1.736-0.102-0.051-0.255-0.085-0.46-0.085-0.409-0.017-0.919 0.034-1.583 0.153-0.647 0.119-1.174 0.255-1.549 0.408-0.8 0.306-1.634 1.174-2.519 2.655-0.817 1.362-1.243 2.723-1.294 4.102-0.017 0.409 0 0.8 0.034 1.174s0.119 0.817 0.221 1.294c0.119 0.477 0.204 0.834 0.272 1.072 0.068 0.221 0.204 0.63 0.408 1.243 0.204 0.596 0.323 0.97 0.357 1.106 0.46 1.481 1.021 2.808 1.685 3.966 1.089 1.94 2.621 3.983 4.562 6.077 1.94 2.111 3.847 3.779 5.702 5.038 1.123 0.766 2.383 1.43 3.83 2.009 0.136 0.051 0.494 0.204 1.072 0.443s0.987 0.409 1.226 0.511c0.221 0.085 0.579 0.221 1.038 0.357 0.477 0.153 0.885 0.255 1.277 0.323 0.374 0.068 0.766 0.102 1.174 0.119 1.362 0.051 2.757-0.272 4.187-0.97 1.532-0.766 2.468-1.515 2.808-2.247 0.187-0.357 0.357-0.868 0.528-1.515s0.272-1.157 0.289-1.566c0-0.187-0.017-0.34-0.051-0.443v0z"></path>
</symbol>
<symbol id="icon-pin" viewBox="0 0 32 32">
<title>pin</title>
<path d="M25.295 3.285c-2.218-2.116-5.266-3.285-8.601-3.285-5.096 0-8.229 2.083-9.956 3.843-2.133 2.15-3.352 5.012-3.352 7.856 0 3.572 1.49 6.298 3.979 7.314 0.169 0.068 0.339 0.102 0.508 0.102 0.525 0 0.948-0.339 1.084-0.897 0.085-0.322 0.288-1.101 0.373-1.439 0.186-0.677 0.034-0.999-0.356-1.456-0.728-0.847-1.067-1.862-1.067-3.183 0-3.911 2.912-8.059 8.296-8.059 4.284 0 6.925 2.438 6.925 6.349 0 2.472-0.525 4.758-1.49 6.434-0.677 1.168-1.846 2.557-3.657 2.557-0.779 0-1.49-0.322-1.93-0.88-0.423-0.525-0.559-1.219-0.389-1.93 0.186-0.813 0.457-1.642 0.694-2.455 0.457-1.49 0.897-2.895 0.897-4.013 0-1.913-1.185-3.2-2.929-3.2-2.235 0-3.979 2.269-3.979 5.147 0 1.422 0.373 2.472 0.542 2.878-0.288 1.185-1.947 8.262-2.269 9.583-0.186 0.779-1.287 6.925 0.542 7.416 2.049 0.559 3.877-5.435 4.064-6.112 0.152-0.542 0.677-2.624 0.999-3.911 0.982 0.948 2.574 1.592 4.131 1.592 2.929 0 5.553-1.321 7.399-3.708 1.795-2.32 2.777-5.537 2.777-9.092 0.017-2.726-1.168-5.469-3.234-7.45v0z"></path>
</symbol>
<symbol id="icon-plus" viewBox="0 0 32 32">
<title>plus</title>
<path d="M31.165 30.794l-6.307-6.539c2.574-2.574 4.151-6.122 4.151-10.041 0-7.838-6.377-14.214-14.214-14.214s-14.214 6.377-14.214 14.214c0 7.838 6.377 14.215 14.214 14.215 3.432 0 6.609-1.229 9.067-3.27l6.33 6.585c0.139 0.139 0.301 0.209 0.487 0.209 0.162 0 0.348-0.070 0.464-0.186 0.278-0.255 0.278-0.696 0.023-0.974v0zM1.925 14.214c0-7.096 5.774-12.87 12.87-12.87s12.87 5.774 12.87 12.87c0 7.096-5.774 12.87-12.87 12.87s-12.87-5.774-12.87-12.87zM13.913 7.722h1.762v5.612h5.612v1.762h-5.612v5.612h-1.762v-5.612h-5.612v-1.762h5.612c0 0 0-5.612 0-5.612z"></path>
</symbol>
<symbol id="icon-point" viewBox="0 0 32 32">
<title>point</title>
<path d="M16.103 7.002c-2.254 0-4.077 1.824-4.077 4.077s1.824 4.077 4.077 4.077c2.254 0 4.077-1.824 4.077-4.077s-1.841-4.077-4.077-4.077zM16.103 13.987c-1.6 0-2.908-1.308-2.908-2.908s1.308-2.908 2.908-2.908c1.6 0 2.908 1.308 2.908 2.908s-1.308 2.908-2.908 2.908v0z"></path>
<path d="M23.897 3.269c-2.116-2.099-4.92-3.269-7.897-3.269-2.994 0-5.798 1.17-7.914 3.269-3.905 3.905-4.387 11.252-1.049 15.708l8.946 12.938 8.946-12.92c3.355-4.473 2.873-11.819-1.032-15.725zM23.983 18.323l-7.983 11.544-8-11.561c-3.045-4.043-2.615-10.684 0.912-14.211 1.892-1.892 4.404-2.925 7.071-2.925s5.196 1.049 7.071 2.925c3.544 3.527 3.974 10.168 0.929 14.228z"></path>
</symbol>
<symbol id="icon-ruler" viewBox="0 0 32 32">
<title>ruler</title>
<path d="M0.694 10.243h31.374v11.462h-32.068v-11.462c0 0 0.694 0 0.694 0zM29.613 16.948v3.369h1.084v-8.703h-29.325v8.703h1.016v-3.369h1.371v3.369h0.982v-5.079h1.371v5.079h0.982v-3.369h1.371v3.369h0.982v-3.369h1.371v3.369h0.982v-5.079h1.371v5.079h0.982v-3.369h1.371v3.369h0.982v-3.369h1.371v3.369h0.982v-5.079h1.371v5.079h0.982v-3.369h1.371v3.369h0.982v-3.369h1.371v3.369h0.982v-5.079h1.371v5.079h0.982v-3.369h1.338z"></path>
</symbol>
<symbol id="icon-search" viewBox="0 0 32 32">
<title>search</title>
<path d="M13.113 0c3.46 0 6.593 1.403 8.861 3.67s3.67 5.4 3.67 8.861c0 3.43-1.378 6.538-3.611 8.8l9.4 9.444c0.339 0.341 0.337 0.892-0.003 1.231s-0.892 0.337-1.231-0.003l-9.473-9.517c-2.11 1.616-4.749 2.577-7.613 2.577-3.46 0-6.593-1.403-8.861-3.67s-3.67-5.4-3.67-8.861c0-3.46 1.403-6.593 3.67-8.861s5.4-3.67 8.861-3.67zM20.739 4.904c-1.952-1.952-4.648-3.159-7.627-3.159s-5.675 1.207-7.627 3.159c-1.952 1.952-3.159 4.648-3.159 7.627s1.207 5.675 3.159 7.627c1.952 1.952 4.648 3.159 7.627 3.159s5.675-1.207 7.627-3.159c1.952-1.952 3.159-4.648 3.159-7.627s-1.207-5.675-3.159-7.627z"></path>
</symbol>
<symbol id="icon-shop" viewBox="0 0 32 32">
<title>shop</title>
<path d="M4.417 7.264h6.243c0.079-1.453 0.236-2.768 0.609-3.868 0.707-2.101 2.081-3.396 4.712-3.396s3.985 1.296 4.692 3.396c0.373 1.099 0.53 2.415 0.609 3.868h6.243v19.907c0 2.69-2.199 4.869-4.869 4.869h-13.369c-2.67 0-4.869-2.199-4.869-4.869 0 0 0-19.907 0-19.907zM12.27 7.264h7.421c-0.079-1.296-0.216-2.434-0.53-3.357-0.471-1.433-1.394-2.317-3.18-2.317s-2.709 0.883-3.18 2.297c-0.314 0.923-0.471 2.081-0.53 3.377z"></path>
</symbol>
<symbol id="icon-time" viewBox="0 0 32 32">
<title>time</title>
<path d="M16 0c4.414 0 8.423 1.793 11.315 4.685s4.685 6.901 4.685 11.315c0 4.414-1.793 8.423-4.685 11.315s-6.901 4.685-11.315 4.685c-4.414 0-8.423-1.793-11.315-4.685s-4.685-6.901-4.685-11.315c0-4.414 1.793-8.423 4.685-11.315s6.901-4.685 11.315-4.685v0zM26.097 5.903c-2.588-2.588-6.156-4.178-10.097-4.178s-7.51 1.607-10.097 4.178c-2.588 2.588-4.178 6.156-4.178 10.097s1.607 7.509 4.178 10.097c2.588 2.588 6.156 4.178 10.097 4.178s7.51-1.607 10.097-4.178c2.588-2.588 4.178-6.156 4.178-10.097s-1.59-7.509-4.178-10.097zM24.169 18.943c0.423 0.203 0.609 0.71 0.406 1.133s-0.71 0.609-1.133 0.406l-8.288-3.941v-9.471c0-0.474 0.389-0.863 0.863-0.863s0.863 0.389 0.863 0.863v8.389l7.29 3.484z"></path>
</symbol>
<symbol id="icon-twitter" viewBox="0 0 32 32">
<title>twitter</title>
<path d="M31.173 5.879c-0.501 0.222-1.016 0.41-1.543 0.562 0.623-0.705 1.098-1.534 1.388-2.442 0.065-0.203-0.002-0.426-0.17-0.559s-0.399-0.149-0.583-0.040c-1.118 0.663-2.324 1.14-3.588 1.418-1.274-1.245-3.004-1.953-4.793-1.953-3.775 0-6.847 3.072-6.847 6.847 0 0.297 0.019 0.593 0.056 0.885-4.685-0.411-9.041-2.714-12.032-6.383-0.107-0.131-0.271-0.201-0.439-0.188s-0.319 0.108-0.404 0.254c-0.607 1.041-0.927 2.231-0.927 3.443 0 1.65 0.589 3.215 1.63 4.438-0.316-0.11-0.623-0.246-0.916-0.409-0.157-0.088-0.349-0.086-0.506 0.003s-0.254 0.254-0.259 0.435c-0.001 0.030-0.001 0.061-0.001 0.091 0 2.463 1.325 4.68 3.352 5.888-0.174-0.017-0.348-0.043-0.521-0.076-0.178-0.034-0.361 0.028-0.482 0.164s-0.16 0.325-0.105 0.498c0.75 2.342 2.681 4.064 5.016 4.589-1.936 1.213-4.151 1.848-6.475 1.848-0.485 0-0.973-0.029-1.45-0.085-0.237-0.028-0.464 0.112-0.545 0.337s0.005 0.477 0.207 0.607c2.986 1.915 6.439 2.927 9.985 2.927 6.971 0 11.332-3.287 13.763-6.045 3.031-3.439 4.769-7.99 4.769-12.487 0-0.188-0.003-0.378-0.009-0.567 1.196-0.901 2.225-1.991 3.063-3.245 0.127-0.19 0.113-0.442-0.034-0.617s-0.393-0.232-0.602-0.139z"></path>
</symbol>
<symbol id="icon-video" viewBox="0 0 32 32">
<title>video</title>
<path d="M3.399 0v9.501h1.045v12.468h-1.045v9.948h25.235v-31.917h-25.235zM17.277 18.636l-3.449 2.902v-11.59l6.897 5.803-3.449 2.885z"></path>
</symbol>
<symbol id="icon-youtube" viewBox="0 0 32 32">
<title>youtube</title>
<path d="M30.684 6.725c-1.153-1.381-3.281-1.933-7.342-1.933h-14.749c-4.158 0-6.319 0.601-7.472 2.047-1.121 1.429-1.121 3.525-1.121 6.416v5.523c0 5.62 1.332 8.463 8.593 8.463h14.749c3.525 0 5.474-0.487 6.741-1.706 1.3-1.235 1.852-3.265 1.852-6.774v-5.523c-0.016-3.038-0.097-5.149-1.251-6.514zM20.5 16.796l-6.709 3.492c-0.146 0.081-0.309 0.114-0.471 0.114-0.179 0-0.374-0.049-0.536-0.146-0.309-0.179-0.504-0.52-0.504-0.877v-6.985c0-0.357 0.195-0.698 0.487-0.877 0.309-0.195 0.682-0.195 1.007-0.033l6.692 3.476c0.341 0.179 0.552 0.536 0.552 0.91 0.032 0.39-0.179 0.747-0.52 0.926v0z"></path>
</symbol>
</defs>
</svg>
