<?xml version="1.0" encoding="utf-8"?>
<!-- Generator: Adobe Illustrator 21.1.0, SVG Export Plug-In . SVG Version: 6.00 Build 0)  -->
<svg version="1.1" id="Слой_1" xmlns="http://www.w3.org/2000/svg" xmlns:xlink="http://www.w3.org/1999/xlink" x="0px" y="0px"
	 viewBox="0 0 196.5 138.3" style="enable-background:new 0 0 196.5 138.3;" xml:space="preserve">
<g id="Слой_x0020_1">
	<g id="_2088613477136">
		<g id="XMLID_822_">
			<path id="XMLID_823_" d="M188.9,11.9C181.8,3.4,168.7,0,143.7,0H52.9C27.3,0,14,3.7,6.9,12.6C0,21.4,0,34.3,0,52.1v34
				c0,34.6,8.2,52.1,52.9,52.1h90.8c21.7,0,33.7-3,41.5-10.5c8-7.6,11.4-20.1,11.4-41.7v-34C196.5,33.3,196,20.3,188.9,11.9z
				 M126.2,73.9L84.9,95.4C84,95.9,83,96.1,82,96.1c-1.1,0-2.3-0.3-3.3-0.9c-1.9-1.1-3.1-3.2-3.1-5.4v-43c0-2.2,1.2-4.3,3-5.4
				c1.9-1.2,4.2-1.2,6.2-0.2l41.2,21.4c2.1,1.1,3.4,3.3,3.4,5.6C129.6,70.6,128.3,72.8,126.2,73.9L126.2,73.9z"/>
		</g>
	</g>
</g>
</svg>
